<mxfile host="app.diagrams.net" agent="Mozilla/5.0 (Windows NT 10.0; Win64; x64) AppleWebKit/537.36 (KHTML, like Gecko) Chrome/134.0.0.0 Safari/537.36" version="26.1.1">
  <diagram name="第 1 页" id="eMehmQnvuhTp3GXlLepc">
    <mxGraphModel dx="1434" dy="746" grid="1" gridSize="10" guides="1" tooltips="1" connect="1" arrows="1" fold="1" page="1" pageScale="1" pageWidth="4681" pageHeight="3300" math="0" shadow="0">
      <root>
        <mxCell id="0" />
        <mxCell id="1" parent="0" />
        <mxCell id="hBP_vp7AdoXU47L-5ApC-11" style="edgeStyle=orthogonalEdgeStyle;rounded=0;orthogonalLoop=1;jettySize=auto;html=1;exitX=0.5;exitY=1;exitDx=0;exitDy=0;" edge="1" parent="1" source="hBP_vp7AdoXU47L-5ApC-1" target="hBP_vp7AdoXU47L-5ApC-2">
          <mxGeometry relative="1" as="geometry" />
        </mxCell>
        <mxCell id="hBP_vp7AdoXU47L-5ApC-1" value="领取周任务" style="rounded=0;whiteSpace=wrap;html=1;" vertex="1" parent="1">
          <mxGeometry x="340" y="120" width="140" height="40" as="geometry" />
        </mxCell>
        <mxCell id="hBP_vp7AdoXU47L-5ApC-12" style="edgeStyle=orthogonalEdgeStyle;rounded=0;orthogonalLoop=1;jettySize=auto;html=1;exitX=0.5;exitY=1;exitDx=0;exitDy=0;" edge="1" parent="1" source="hBP_vp7AdoXU47L-5ApC-2" target="hBP_vp7AdoXU47L-5ApC-3">
          <mxGeometry relative="1" as="geometry" />
        </mxCell>
        <mxCell id="hBP_vp7AdoXU47L-5ApC-18" style="edgeStyle=orthogonalEdgeStyle;rounded=0;orthogonalLoop=1;jettySize=auto;html=1;exitX=1;exitY=0.5;exitDx=0;exitDy=0;dashed=1;" edge="1" parent="1" source="hBP_vp7AdoXU47L-5ApC-2" target="hBP_vp7AdoXU47L-5ApC-6">
          <mxGeometry relative="1" as="geometry" />
        </mxCell>
        <mxCell id="hBP_vp7AdoXU47L-5ApC-2" value="发奖(含赛季经验)" style="rounded=0;whiteSpace=wrap;html=1;" vertex="1" parent="1">
          <mxGeometry x="340" y="200" width="140" height="40" as="geometry" />
        </mxCell>
        <mxCell id="hBP_vp7AdoXU47L-5ApC-13" style="edgeStyle=orthogonalEdgeStyle;rounded=0;orthogonalLoop=1;jettySize=auto;html=1;exitX=0.5;exitY=1;exitDx=0;exitDy=0;" edge="1" parent="1" source="hBP_vp7AdoXU47L-5ApC-3" target="hBP_vp7AdoXU47L-5ApC-4">
          <mxGeometry relative="1" as="geometry" />
        </mxCell>
        <mxCell id="hBP_vp7AdoXU47L-5ApC-3" value="触发 累计完成任务" style="rounded=0;whiteSpace=wrap;html=1;" vertex="1" parent="1">
          <mxGeometry x="340" y="280" width="140" height="40" as="geometry" />
        </mxCell>
        <mxCell id="hBP_vp7AdoXU47L-5ApC-23" style="edgeStyle=orthogonalEdgeStyle;rounded=0;orthogonalLoop=1;jettySize=auto;html=1;exitX=0.5;exitY=1;exitDx=0;exitDy=0;entryX=0;entryY=0.5;entryDx=0;entryDy=0;curved=1;strokeColor=light-dark(#f20d0d, #ededed);" edge="1" parent="1" source="hBP_vp7AdoXU47L-5ApC-4" target="hBP_vp7AdoXU47L-5ApC-9">
          <mxGeometry relative="1" as="geometry" />
        </mxCell>
        <mxCell id="hBP_vp7AdoXU47L-5ApC-4" value="任务完成，缓存移除" style="rounded=0;whiteSpace=wrap;html=1;fillColor=#ffe6cc;strokeColor=#d79b00;" vertex="1" parent="1">
          <mxGeometry x="340" y="350" width="140" height="40" as="geometry" />
        </mxCell>
        <mxCell id="hBP_vp7AdoXU47L-5ApC-14" style="edgeStyle=orthogonalEdgeStyle;rounded=0;orthogonalLoop=1;jettySize=auto;html=1;exitX=0.5;exitY=1;exitDx=0;exitDy=0;entryX=0.5;entryY=0;entryDx=0;entryDy=0;" edge="1" parent="1" source="hBP_vp7AdoXU47L-5ApC-6" target="hBP_vp7AdoXU47L-5ApC-7">
          <mxGeometry relative="1" as="geometry" />
        </mxCell>
        <mxCell id="hBP_vp7AdoXU47L-5ApC-6" value="赛季经验变动" style="rounded=0;whiteSpace=wrap;html=1;" vertex="1" parent="1">
          <mxGeometry x="590" y="200" width="140" height="40" as="geometry" />
        </mxCell>
        <mxCell id="hBP_vp7AdoXU47L-5ApC-15" style="edgeStyle=orthogonalEdgeStyle;rounded=0;orthogonalLoop=1;jettySize=auto;html=1;exitX=0.5;exitY=1;exitDx=0;exitDy=0;" edge="1" parent="1" source="hBP_vp7AdoXU47L-5ApC-7" target="hBP_vp7AdoXU47L-5ApC-8">
          <mxGeometry relative="1" as="geometry" />
        </mxCell>
        <mxCell id="hBP_vp7AdoXU47L-5ApC-7" value="触发限时任务" style="rounded=0;whiteSpace=wrap;html=1;" vertex="1" parent="1">
          <mxGeometry x="590" y="280" width="140" height="40" as="geometry" />
        </mxCell>
        <mxCell id="hBP_vp7AdoXU47L-5ApC-16" style="edgeStyle=orthogonalEdgeStyle;rounded=0;orthogonalLoop=1;jettySize=auto;html=1;exitX=0.5;exitY=1;exitDx=0;exitDy=0;" edge="1" parent="1" source="hBP_vp7AdoXU47L-5ApC-8" target="hBP_vp7AdoXU47L-5ApC-9">
          <mxGeometry relative="1" as="geometry" />
        </mxCell>
        <mxCell id="hBP_vp7AdoXU47L-5ApC-8" value="往缓存添加限时任务" style="rounded=0;whiteSpace=wrap;html=1;" vertex="1" parent="1">
          <mxGeometry x="590" y="360" width="140" height="40" as="geometry" />
        </mxCell>
        <mxCell id="hBP_vp7AdoXU47L-5ApC-9" value="打印日志时，遍历缓存数据抛出并发异常" style="rounded=0;whiteSpace=wrap;html=1;fillColor=#f8cecc;strokeColor=#b85450;" vertex="1" parent="1">
          <mxGeometry x="590" y="440" width="140" height="40" as="geometry" />
        </mxCell>
        <mxCell id="hBP_vp7AdoXU47L-5ApC-10" value="" style="shape=image;verticalLabelPosition=bottom;labelBackgroundColor=default;verticalAlign=top;aspect=fixed;imageAspect=0;image=data:image/png,iVBORw0KGgoAAAANSUhEUgAABb0AAAEMCAIAAABvA4xBAAAgAElEQVR4AeydB3gURf/HTxDSgIQEiCTSkS4oCFIEBUWEiIgKqOgrgmBBxZfygop/8OXVCKKIUpRepAgEQiCkASFACIEQUi69N9KTyxHatf0/e3M3t1c2uQu5S+7uu48PmZ2dnZ35zMYkn/vNjEBszYdQKGQaesjlcplMJlEfCoWi7ppu3bpVdwHruXq/Mj8nJycnO+Xs0qdbv7CpsOEtF99KJUdOxQNai0JUqMrNrZLQXCQsQyDHd5jAZ/dtyzzMuKfcryrIzc3NzUk9v+LZdi9vLTLuriYsda/wyqGwVFUDSq+cCE4TGfy/Q8a6kU7Pb3yI758m7CMeDQIgAAIgAAIaArm5uZoTpEAABEAABPQICKxZm4gb5k3kcrnalmi+6pHRzbAhb3JpoadAIBC0cOww6I2NsXd1e4pzaybQDL1J5FddHR0dHZ3dvIfN2hRnO+/b3YMzXCdusRmdas1vPdoOAiAAAiDwcATgTR6OH+4GARCwfQJ24U0UCoVceZCgEhJmIpVK5XK5QqGQSCQymazeobYhb1JvX1EABEAABEAABEAABEDAXgjAm9jLSKOfIAACDSVg+96EOxlHIpHI5XKGYeisHOJNSGbdDOFN6uaDqyAAAiAAAiAAAiAAAtZIAN7EGkcNbQYBELAkAdv0JlSLkCk5UqlUoVBQgcLlSwrQ8txLOml4Ex0gOAUBEAABEAABEAABELABAvAmNjCI6AIIgIBZCdiUN+Eu9UpUiFQqlUgkVIuQ5Uy4QOFNuDSQBgEQAAEQAAEQAAEQsDcC8Cb2NuLoLwiAgKkEbMSbkOk2dJVXmUxGXIlMedThTXTESh34EG9SBxxcAgEQAAEQAAEQAAEQsFIC8CZWOnBoNgiAgMUI2Jo3qWOlEhJaorMELJm8Q8VKHdzhTeqAg0sgAAIgAAIgAAIgAAJWSgDexEoHDs0GARCwGAGr9CbV1dVVyiMhIYGSonNwuFvn0KsMw5ACOoqEyJQ6bAutAd6EokACBEAABEAABEAABEDAZgjAm9jMUKIjIAACZiJgfd6EGBPyb3x8PI0fIVqEzLshaXqJYRjiR6RSqQ5Hg0EoOmXIKbyJQSzIBAGjCCgKT6+YNrSH58AVUUaVRyEQAAEQAAEQAAFLEYA3sRRpPAcEQMBaCViZN6mpqSHGRCwW19TUxMfH02VfqTEh8SY60SX0lG6sQ0bMnvchfpAXvG7+lFVnrfXdRbtNJyC54jv5hTl/55l+J70j7c8PZ369P0FEM4xKSAM/8uj86q/n4zPK7hp1AwqBAAiAAAiAAAhYigC8iaVI4zkgAALWSsCKvYlYLE5ISJBIJCSuRCaTkf2GyVCQhUvIJRJUQtQJ/Vdnwk69A2jZeBPJuS1Xuo89LRh2SvDczaB6G2d6AfF133FePad+dyCuUnXzidkOAs4xZkNB/bWGfezqufBS/eWaXYmgea7qvvrsv9fsmkcb1JB2npjdstfym7QKrUSt/0fdOg3/UTO9Teuq3omh8b2bFfrLnKGeA+YF3FLo3cCbUbXDx/GF34t5r+MCCIAACIAACIBAkxGAN2ky9HgwCICAlRDQ9iaisszrYSf9/M7cKBSrD1Fx+tXzZwL8/U+HRMTllJNs0a2UqLOBJ/1Png67nJhfqS5r9q8kxiQ+Pl6oPBITE+OVBznlMieBJGRiDtebSKVSuVxuqjRhGMai3qQq9/lh5z+LEGcX3ckpftD4H9Dfvbyoj+drO3PlHGR3ynNzclJ/niDosygkJyenuEbGuciTNPR3NU/R5pV9tyIvJycn58J/+guatTdpSDvr8iYmjgLv+IpCP+3XadqeEqPrkx9/z3nI6iSjy6MgCIAACIAACICAxQjAm1gMNR4EAiBgpQS43qQkKfx0UGRySnQgx5uUJISdPB9fUFktKs2KDgqIzKoWi8VFscGnLibdqhJVF6dFnj4VnVtjdmNCH0Dm5tCVXEn8iFwuFwqFCoWC5nMXLpHL5Q3WJXRcLepN8jOGDIve/4A+XJm4U7Nl9eXu48+0e+XC63+V0z9Zw9eGevxfxk+fn2v7XHDvT5NDKrTvMnRW6ze7/YBv4gyEC9zb7SMYuCqRc1OO7zDB1P/ufG9wB5d23iPnHcgkOiVonos6YEP1dcwGVTRBbdzWOc92aevg1KG/zzdnNEEJNdfWvj6gQxvXJ1799fePvT0+DlM9had8+EJPj3/9+NOkXm1d3Hu/tCykvlgFnvIpqwYK3jykWtcmakk3lw9OaXqX4TtE35vwtEdzl35KHLywXwfvyVuy9C/p5Zi9nTzeRBNPNGRNBrdV5ee+e6V/R+eWLZw8+r607EyR8lod40vuLd020WXkr9nciupMX1jU+fEvrTE0qc5e4SIIgAAIgAAI2AIBeBNbGEX0AQRAwJwEuN6kOCutqEosLojheBNR+kW/iHQRsRbFcSGBbCRKdW781aQilcnIifIPTSilWsPsCe7cHIZhyHwc4k3oEic00YC4Ej7aFvImwpReowIdRp5+ZNjpVqMCHUYFOkyID2XbpIj85ZzT7MSjSeL4q5mTJga9GaLSKuFrQ50nX119USRMLl78/hmP74pr+fqgzr/x7YD2czn6QJ3PMIa9SadR/94dmRgf8sP49o4+u8vY4rXFaSkpKbtmte0w+0CK8sirUhoV2eWvurmPXxUYm5x4Yfusni5TdhHDo7jxdd+WfT7YFxV//cjiFx93U3sTvvJM+EJPZ+9XVp+KFcYcXzzcxeM9/7r7xVPeVG/C2x4NJP1UxcHpHo4ug1fF61/SyzF7O3m8iTKeKCd1w0SBtjeJWdHbeczKMGFmemzI95O9nlh6kW0y7/jS/iStHuLy/gluxBK9pJdQ3M/d4uP27FpjvJLezcgAARAAARAAARAwLwF4E/PyRe0gAALWT4DrTVTKQ8ubVKde8LucobpSFh966nq+lhmpKY4LDbiSrRIrWpcadiISicg2w9XVbGQL9yCXEhMTSYwJgU/iSog3YRiGGhOZTNaI0sRy83QePMjMuZ0SldRv2JV16bdTcm6n5N1X+oLa72edfiNY9Wdq9MZz7b4vJQTC14a2/voWiQKRhsc6+CRdq++9PP+Fd9evIgyVMuxNxm4kQQhM6AL3jp+e09xoYB6HcGU/l7lnVEWS/zu49Tt+ypPC9SMFE7YonQtz/9CbrdXehK88601azzqq6teJ2Q5dF9fdL57ypnoT3vZoem0o9aCqqKzWQACPflmzt5PHm5CW3Ns/TcebBH/k5rUg9L5+QxmGMTC+tFzhhrGOr+2ub3nY+//MdHV1bePs2GHEf68244VkaLeQAAEQAAEQAAH7IwBvYn9jjh6DAAiYRsA4byLKuRYSnlSi501ERXFnT4UnNVq0Cdkrh/tvTQ07BYiYFJKfmJgolUrj4+MTEhKEQmFCQkJ8fDz1Jqb13pTSFoo3IU0yME+natHkM/MiVS3O2H1RsLiQTD5h5+n8UK66UFax7Wh5fn39Ove5l0neZJp66VTdeS4G/q6OWuQtaNnKgRytH31EMG2/sp1xK3q3nH1C1bJLi+g8Hb7yrDdRuxWGKbqwbUtY3f3iKW+qN+FtT31Qjb1u9naa6E1qw5f0cXDyHjpx1icrN59Ju8Pth4HxpZdZbzJ1V33eRFFTmJqaKrwRsPRZ95e33qJ3IwECIAACIAACINBsCMCbNJuhQENAAASaKQHjvIkq6kPbm9SUpV0KDLqa3eBVYWuUB40o0QkzIZaERJ2QS5WVldXV1YmJiWTNV7ozjkQiYRhGKBSalbF1eBPjEFxY1OXxL8MNlTUcb2KiN3GbvZdM3VH+W1ijfNDN5b34vInB8trexFBbdfK0fITmWgO8ieH2aKp8uJTZ22miN2EY5k7elaNbflgyZ0J3R6fnfuMsflKXN8lbP9rx9b1iY2Fc/Le39xfKKUDG3oFyIAACIAACIAACliEAb2IZzngKCICA9RKoz5vorW8SU0BER2VOdHBgREppg1aEFYlElZWVxIxUVqrECzklASZisbimpobkkDTJr6mpEQqF9+7dUygUZONhstPwvXv3hEIhXRTWHOPR1N6krnk6mngT43ouXDPU5a0DhrbpMdGbnP3ETXcfYuHKfo/OPKJae+XOreT4PBKSwK4vO3kncShy//ec1bEkfOUby5uUbhwrGL+ZzGmSn57TrtuSKA2kzJ+e0l0Xlrc9mrsMpRT3bt9RLT5r6DInj8ebNF47TfMm8vvi6lpWPLJH+o9DBZO231adMYyB8aXXohZ3d18QZNTUJHZ5noA5bQauNGb9F/oAJEAABEAABEAABCxDAN7EMpzxFBAAAesloOVNSABIPrsubAGbZg0Ju59OeHxBpUi5n87JSxnsqiOiwptnT5+LK9RdgUQVO0LCQ6gBoRElJCESiaqqqiorK0miqqpKJGLXR9HxJgZzxGJxcnJyeno60SWEu0wmS09PT0lJMeswNLU3UUT+yq4Le0y9LuxbnHVhTfUmskuLu3WccaRaCxjPPsSs7+CNN0lZM7DF00tD4lJSUtJukWVb2XVVnYd+efRaclLk/jl9Hcf9nqt8jOz8Z50dR626VvVAnLhx+uNt1N6Er3xjeRNGuGZI635zD1xNjD317ei2j80P4cxEqT0wtZXnu/sSs3NycnKKRKw+4G2PFiydkyq/tx9zch3ha0zIE483abx2npjdsuv8E5qIn+wK1mLdryxgO8muC9t/yQU2WVDFLmpye8+rrbynbwi7mZGVFLF2krvHglCNCzEwvqqeS6KX93WbfrC+aTqUk2jXVMdxv6mWyaG5SIAACIAACIAACDQDAvAmzWAQ0AQQAIFmTYDrTXKjA/y4R2hcMetIitOunjtz0t8/ICj8Rna50n0UXA/08ztOjxNXstjwEKI/6HIkdGFXkfKgGoVEmhCHQhcuoXfRSqg30dEuYrG4sLAwNzeXLPuqUChyc3NLSui2vObC3dTehGHu1GxZxe5D3HbShWk6+xDT9U2M7X3+dh/P7jN2pHFiTjT71Co3Fh6zoUBZWZ3ehCkPWvKcl3MLgUCg2d/39s3N7w/3buPg0rH/5GX+eXTHlUL/D/s7CR55xKnX3CVvd1Z7E4bhKc/nF/i6yFv+XsreBWN7uLu083561vrIKq37JfFb3xro4fAI2+WBa4h542mP1n06JzVnPunj4fXyJs4UF50SmlOzt/PE7JaqraHJF9Ivdt0W7cObRN5IMw5/Mq5Xe4cWLZ079J24VLUPsaq9hsaXYWQlIV8O7TB8dYzOTtmaTuql7h9527n3gqAKss6v3mVkgAAINHsCcrmc+4lFs28vGggCIGACAXgTE2ChKAiAgF0S4HoTfUFhQg6xIcR60IgSOteGG0tColr0L9EckfIgt1D5wm1KTU1NdnY2cSUlJSXUoZh1BC3qTczaE1J5bfzv03p06DVhQ6wFHqZ+hOJ+ecEtsZSNJfFcaHCBFXVJfG2uBIqOfjzY03P08rByTVyKEW29F/vrlJ5tnVz6reDMkzLiPhQBARBoWgJEl9AFxRp3o7qm7RqeDgIgQAnAm1AUSIAACICAQQKN5k1EyoMGlRDrQVZypUKEShA6Q6empoaEnHCFC7m3qqqKludKE5IWiURpaWlFRUU6c3YMdrJRMm3Nm7BQ7hVeORSW2ih4jKnkfmV+Tk5OTnbK2aVPt35hU6Ex96BMcyNQeuVEcJrIJGei7oKMnQtWxolxUl/AVxAAgWZIQC6XU11CE82wnWgSCIDAwxOAN3l4hqgBBEDAtgk0mjdhZ/SIRNR0cCfgkEtkTRNiPYgZIWlSkq4OS+b7iEQiqmD0pQnJqaioEAqFd+5wlqsw51jZojcxJy8DdV9a6MnOFGnh2GHQGxtj8eezAUTIAgEQAIGmJKBQHqQFMplMIpFIpVK5XE62scM8naYcGzwbBMxJAN7EnHRRNwiAgC0QaARvIlIedDkSEjlCY0yo9SCuhNgQkiY3knRlZWW9ooRWRRPm3nuYO8LwJlwaSIMACIAACNgSAZ3oErqCGOkj8SZm3bTOlmCiLyBgdQTgTaxuyNBgEAABCxN4WG/C9SNk9g0NOeGueEKXfSVXaTQK3UyHqhCTEvAmFn5d8DgQAAEQAAGbIUAXK6HSRC6XS6VSMiuH201SgJbnXkIaBEDABgjAm9jAIKILIAACZiVgsjchK5JQOULDTMRidksd/Qk4tCS5yp2P04AAEx2rAm9i1pcDlYMACIAACNgeAe5Sr0SFEFdCw0ngTWxv0NEjEKibALxJ3XxwFQRAAAQa4k3oLBtiMbiuhHtJR6MQw0I1io4BadipLXkTzAPCdyMIgAAIgIBZCZDpNnSRV5lMRr2JVCql4ST63oSIFVrArI1E5SAAApYnAG9ieeZ4IgiAgHURMNmb0EVeq6qquIuVEPFR91SdhsmROu6CN7Gutw2tBQEQAAEQaEIC1JvQ0BL9xpAyUqmUe4msEQtvwmWCNAjYEgF4E1saTfQFBEDAHAQa4k2oOiGTbrjxJjoxJiLlUYf4eMhL8CbmeCdQJwiAAAiAgLUTUCgURHZIJBKuJaGxJHLloa9CdObsEA5kfRNuPdbOB+0HARDgEoA34dJAGgRAAAT0CTTQm9B1Xok0qaqqogaErPlKdtWhmWZKwJvojyhyQAAEQAAEQID4EbrIK1UeOvkSiYS7uzANSNEBSLwJt6ROAZyCAAhYNQF4E6sePjQeBEDAAgQa7k3oirDceBMaitK465jwaRd4Ewu8IngECICA1RBQFJ5eMW1oD8+BK6Ksps1oqBkIcDUHSUskEvIcrkmhl2jUCTfYhCwfS+4iPoXKFzM0GVWCAAg0JQF4k6akj2eDAAhYA4GH8iZcdULUBtltR8ek8FmPh8+HN2noO6a4sjv6hdWFeQ29n3vfg7zgdfOnrDrLzUMaBCxJQHL152kvzz+U3xjPtPD7nPbnhzO/3p8g0m06X75uOe1zaeBHHp1f/fV8fEbZXe0rOLMvAkSIUM1BYkzIqUwm4y4BS+bykEASGmxCJ/hIJBKqVOyLIHoLAnZGAN7EzgYc3QUBEDCZwMN6E7IQLJ2nQ9c3wTwdU4fCsvvpyPzXnO30fkaCbisl57Zc6T72tGDYKcFzN4N0rxo4F1/3HefVc+p3B+IqlVeD5rkIdI7nt5YbuLG+rOINYwQvGrxTfPPPD8f08HBp81j/yf8JyJfXV1MDrod97Oq58FIDbtS5pTHqyfj0L1+3Tb5um356N1XGqZ8vn2HyTnuz5X3dNq313rNnYXLFA85tekn+evSKWizj3OeeXb+KNOFxtQGf9ukyZl2iCbcYLqr7PhsuxZsbNM9V/fb77L/HW4x74W5W6C9zhnoOmBdwS2FMPreMfrpqh4/jC78X619Ajp0RIN6Eru2qc8qFwV0FloafEM8ik8moeeHegjQIgIDtEYA3sb0xRY9AAAQal4C2NxGVZV4PO+nnd+ZGIQ0GERWnXz1/JsDf/3RIRFxOuTK/LOHscXL4+R07eiamoLqalK+pqRGJRGSfHVpD4yaE/EfjotGpzdxew9z163TH8GlV7vPDzn8WIc4uupNT/KD+D6zvXl7Ux/O1nbkad3G3Ii8nJycnc8NEQf8lZ9lkTrFYc9nwYw3l8nkTeeS/uzs+9dk/V4WJEX+91c1pwpZGCZrRbkJj+A62xsao50GZWJQnjvvXn1v/r4TbSr58pjh+n5tfVJJYlCcqC4852HXLkb/vc2/USfPWo1POkqcme5NGapz++2xixarX/8J/+guM9SbKJ4hCP+3XadoerQFmL/Dl8zZLfvw95yGrk3iv44K9EKCRI6TD+qdUiBBXQuJNaJpetRde6CcI2D0BeBO7fwUAAARAoB4CXG9SkhR+OigyOSU6kONNShLCTp6PL6isFpVmRQcFRGapDAkrQ6oqcmNCTp1LKKiuqWlcOVJHbXxzc/jy6wFg9GVzew1z1087emJlIBtOMuyU4J30DJpLEvkZQ4ZF768zPIF7R63f7PYDvonT+picXJfunyYYsiaFW5ipvr7xgzFPdGrTplPfSUtO5tO7ys9990r/js4tWzh59H1p2ZkichPXm0jj1zzjPHD5dfbP/8z/PSV4bd8dUijzzzefWRaiisIQ39wyZ1R3d5d2Xk++vvqs+k/QHN9hgqn/3fne4A4u7bxHzjuQSWM2DD5XP15mzAbVp/eG289Tfx31aEHhnkjLD5zfO3Db+p6Hgw5cP+R2LEbdB4a5c+3lTYf36usPQ/mXIn4bdPmWqmJx1PhNf/9ZyzCM3C/op2ejK0i+OOmQ29FrhfTphuphFOKw6GNjdq1/bPuWieeTMuuzX7XCvZ+9NMDLo0OXIVOXB+RRzuL4v+Y/37ezR6cez8z43/lS1TNzfx7l+OaPez4c7u3Rqee4Tw5nkfIhn3g4ah/j/1BhEN3Y9NH4QV06dOgyeOryUwXq9ydgjqvqhhG+mbRDDE/9DMNUhH//2lOPu7s4t/caPOXrYDUphmEMvs/hCz09/vXjT5N6tXVx7/3SshDV25CyaqDgzUOqjVqjlnRz+eCU5uEZvkP0vUlt3NY5z3Zp6+DUob/PN2e0g0sYpnTbRJeRv2Zr6lCl+PL1CqoyLizq/PiXjRAqxVc/8q2HAHduDsMw5JRMuqFLnNAEyceUHOsZXrQUBBqZALxJIwNFdSAAAjZHgOtNirPSiqrE4oIYjjcRpV/0i0gXEY9RHBcSqIlEERUnnj8VEptXZUFpIhaL+fwIX35jDZm5vYa566cc7lTfzSm6k3rgqpY3Eab0GhXoMPL0I8NOtxoV6DAq0GFCfCi9hydx49sB7edy/lzUFNP3JvdPvt/eY8LKo5fihZF7Zvdq8+qeMlI8ZkVv5zErw4SZ6bEh30/2emLpRWW+xps8iF012HnQdzFE59xc3qvl7BOaJ6lT0sh/93Aa+sXRa8L40J8ndXJ98xBRBKzX6DTq37sjE+NDfhjf3tFnd53PrS1OS0lJ2TWrbYfZB1KUR16V8i96vvbz1M9bj7q9el/l169sfexQ8JHiMmF+xHv7NnqFZWnKFAb13BlqYOKKgfx7u07+9E4q+we97EHFsbNbOx+9rvxrvHL9Yc1Mn5tXtjwWmqFWDwxjoB5FwrUdTxyPOFVSnlp8c+7e9e+l1enTZNdWDHQb/vmR6KSky7vf79/+pc25yuZLo5b1az9y8fGYpISzG6Z28Xz7CJnQxXqNLs8v2xclTAhbO+kxt+n7lLO5akvSU1NT977X0XvO4VTlkV9N+J+a+5jXK6uPRyYkRe2fM6DDG/tVs7/uVOTl5uam/eHjqOdNDNTPMLErB7qPX30uKSsjLuyHaT0GrbhMMRt8n8MXejp7v7L6VKww5vji4S4e7/mzFoox1ZvILn/VzX38qsDY5MQL22f1dJmyS2PFlA1IWj3E5f0T+nKKL5+2mpNQ3M/d4uP27FrOm8O5iqRtESCLtkqlUv09bsglEjxCp+oQRULNCDUmMpmMZtoWIfQGBEDABALwJibAQlEQAAG7JMD1JqogDy1vUp16we9yhupKWXzoqev56pOk88dPBF28kcK6FgsefH6EL7+xhtXcXsPc9etwuBd4XcubPHiQmXM7JSqp37Ar69Jvp+TcTsm7r/z7UOc+rdPzX3h3/SpCK0t1ou9NtEpd/upxj4/DSFbwR25eC0L1QinU3uR+zIpBzk+vjlVtBcHweZO0759s8cZBVTXRy3q0m3tGWT/rNcZuVAWxhC5w7/jpuTqfq7xY3/waTvt562crqq8e0hLyb97SXRu/UkXh3N3l7zvmehW9XCU86OYXow7VoNmMofzCb/f6emxZ57l1ncemnweeOB98m+iRjE//2rJS9be6zC/op1HXiMBgazNUT85XO7b/qApPUfgF+Y6/obd0qaYhDJPx43DnmYdVS3oU+n/70eZrSgeQ/sMzzrP+UY3L9a/7dfo4WHkb601e3KQK9ji7sPPjX4Zrqqtvns6Vpb28PleNI7nr3sEZ+t7EYP2hn3r2WHhW731jqzH4Pocv9Gw96yiJhpGemO3QdfE1tqyp3kS4sp+L6pVkmOT/Dm79jp+mv2yqcMNYx9d26zPmy9e++/4/M11dXds4O3YY8d+rxi2sol0BzqyLALUeJIqErt6qs54rN+REx5tYV3/RWhAAAXMTgDcxN2HUDwIgYO0EjPMmopxrIeFJJVrepLqsKD83Kykq5OT5pDKLexOh9sEwDLyJSe+irjchN5s4T+fc517Ge5PisO98Bnm5Ojk4ODi0bimg8xpqw5f0cXDyHjpx1icrN59JU83AYVhv0uJRZdH2c4LV1oTh9SZRi7xd5qlXss3wHSaYtl85iYL1GtPUS3Ry51PwPFcJwpDv4Gk/b/1sRYbq4Rmm2uiXNv2zT/XnfMXPh396P10Te3Dt8h9dzunP4WAM5EsTZm76+5eyirTk4122B4XTkBJ2Js6hXaq/qNn630sjLoBtj4F6xFEvbPqpw1bWv3huXddhs++sFNWkFMMdiF7a0+OTEP1rWvmZP49ynHFQWQ/rTWYcVLUnenkfj48CNTcb8iYl576fPqyHZ3tXV1fXdi6OWuUZxqA3MVh/bcTyJ13b9xzp894Xq/8MTle/b+zDDb7P7DwdteNjii5s2xKm3LXHVG8Stchb0LIV+/Kz7/+jj6jfT9pp1o9M3WXYmxjKpzcqE4qawtTUVOGNgKXPur+8lTP3SLsYzmyCAHcHHIZhiBAhUSfUm5AoEhJyQt0KjT2xCQzoBAiAQGMSgDdpTJqoCwRAwBYJGOdNVFpEy5uo8kTpl46Hp1gw5ITPj/DlN9aomTsexNz163BoFG9yYVEXrTABzTP04k2kIR+6u764JuRmMjv55fCHXtSbMAxzJ+/K0S0/LJkzobuj03O/kUVXWG8yanVUSuwWn3bubx+rVtfNF29isjfhea7yOfq+g7f9jeVNCpUFbQoAACAASURBVIN67ghVTxnJ+OSvras04SUPDp72fcFAuIeh/IoLw7YHszFAkoSZWzhLyRYF994efEFFka2fs8qsoXryA7vuCwmqqkhX/VdVqnFX6rHgftXyI5wLWvkN9ybSsAWdPSf7hsWnsJN3ji7o0WBvwo57/tXjf61dPv+Vvm7tJ/yhWRTF4Pus5U00HWuAN3GbvZdM/VL+W1ijqYxN5a0f7fj6XrF2Zh35egVJxsV/e3t/Qaa68ZRAtjURUCgUVIXQtVq5K5UwDMNd81WhPLg9pNN56O3cq0iDAAiAACEAb4I3AQRAAATqJlCfN9Fb3ySmQCyuzEm4nnZLJU6yIk+cTSLb7KhyzPilpqZGKBTeu6cbiH7v3j2hUGjW3wvN7TXMXb/Oe9Ao3kS4ZqjLWwcMbbuj503yfhkumLhT9aeiImS+u9qbyO+Lq2vVf5Kn/zhUMGn7bbat6nk6jCL5h2GP9lkWo4p20FoXNmPz608tDlbGTdQ1T8dQvAnfc5Wczn7iprMPMW/76/Qm+vWoh+FBVVHZHRoMwjDS9GNuBy6pFtKtjBi+6fAezVSSkv/+vW5eFqe0qhYD+dLM4x3+uarcYkj0x1HOZJ8sf4+/LwrJjZUXR2w97qcJHzFQjzzDz01VD8NIb6dW1Gj/Ra/bfoadjzPzsOpdyDuy+O0NV+qdp2MwHoRt4vkvdPchzt84xtFnj/r9Cfusc0O9ify+WETft4x1Ix2n7lK+b+xjDb7PPN6kdONYwfjNxG3JT89p121JlGpU2MWLf3pKd11Y4cp+j848oloi5s6t5Pg8ndCSqMXd3RcE6Q8yX77madyUImBOm4Er47lZSDdjAnK5XCqV8i0vQo0JnZVDSup4E501X5txd9E0EACB5ksA3qT5jg1aBgIg0DwIaHmTGuWRz64LW8AmWQHC7qcTHl9QKVLup3PyUka1WCzKvXrqdGRaSbWo6lbyxYDA6wWW205HnJycnJ6ezl0JTyaTpaenp6Ro797S2HzN7TXMXb+ah7yy9I5qXdi3ki4U3ckpuldFF/w0cZ6O7NLibh1nHKGxIOpnMIyeN5EEfeDmMnr5ydjkxIh9X0zq7qH2Jrf3vNrKe/qGsJsZWUkRaye5eywIVf7tSL0Jw9w5O8/LccJmst+wch/iIZ/9E51E9iEer8qXRS7u6TT0i2PqdWHfOqxZF9aQN+F7rrIPKWsGtnh6aUhcSkpK2i3lMi+87a/Tm+jXQxBVHHjd3dFl8CrN37fy/MDum3cuzypJKU1dd3pLpx0hnJiBwm/2/PzajZIcdkNiUamE/m1tID/9+o6OwalkBk5c1FY3P/WmPGXhT23e+XVuZV5V1o/HNwyOyOO4RwP1MKXnnty6+9vskvSK3J0hW7oFJmtWQ2EY/fYzsujlA1yV68IKL+14t2/7l7eS8ZJF/ad/+5GLT6jXhX3nqGZdWF5vkuo71PnZFWHxqamp6cWEf8hHnh4vfHsqLkV46cDiqX291N7kflVhrmpd2KeWX2SThdWsceKbB3R7/xtte87841x8ZnbypV+mdvZaeJbyNPg+83gTRrhmSOt+cw9cTYw99e3oto/ND+HM+Kk9MLWV57v7ErPZfbiLRKwWZNeFdR765dFryUmR++f0dRz3O1k3V/U9I4le3tdt+kEdl8IwfPmabzXtlGjXVMdxv6mW89G+hLNmQkChUFDFT8wIPdWJFiF+hDSbW5KbJle5JZtJN9EMEAAB6yIAb2Jd44XWNlsCJMyz2TYPDXsYAlxvkhsd4Mc9QuOKxWKxqDjt6rkzJ/39A4LCb2SrAkuq8hMuhZzyP3HidGhkUiFna2Izxppoqi4sZP9UIp+8KRSK3NzckhKdzSkehonhe83tNcxdv7pXVYsmKzchJlsRs/+GLUlQXzTRmzBM/nYfz+4zdqTpxpzoeROGKQz8z4u9PZydOwyavmHnv/uqvQkjzTj8ybhe7R1atHTu0HfiUkP7EDOF21526vR+IAkMEN/cOmd0d3fnNp36TVrin0tX6RDf3PLBqO7tXdp2HjRNex9iQ96E77kERXnQkue8nFsIBJp1WHjaX6c3YQzUwz5AFLjgCQ+vlzdx9oFWVB4I3dH7r1/6HQ3ec/Wg1ibBjCIl8eiwbWvdNvm6bVo3N5P+nW8gPyjs56evqL4ZlC7myAFV3Mqdi9H/DN+x/rHtf752MVmzGzPbHAP1MIyy/M71nXdsnXwuNpaqNSUfA+1nmNsJOz+Z0N/LvcPjg3X3If7o+b6PeXTsPkxnH2Jeb8JUhCyf0MPd2dFRs45JUdA3kwd6ubt7D5v5x55lg9XeJHppT+19ix17Lo+uw5sw0syjX7w04DFXZxd378E+K7j7EBt8n/m8CXMvZe+CsT3cXdp5Pz1rfaRmEV+WkCR+61sDPRweEQgEgoGq/bhv39z8/nDvNg4uHftPXuafp1m9hpGVhHw5tMPw1aoto5SI2X/48mkB/cT9I287914QVEG/K/SLIKeJCRDHQVwJd8sbGlRCViEheoWYFG7gCXdijlx5cNc3aeK+4fEgAAJWSwDexGqHDg1vFgSILiE/4uli7c2iZWhE4xHgehONmGjmqZqamuzsbOJKSkpKqENpPCwGajK31zB3/Qa61ChZtfG/T+vRodeEDbGNUh0qAYEmJWDx97no6MeDPT1HLw8rpz5MCYAvvx4692J/ndKzrZNLvxWceUP13IPLFiVAZAedm0N+xyLugy7jSiNQqFihi5iQG2lJcjs3ANOincHDQAAEbIUAvImtjCT6YWkCOj+Ryc9lSzcCz7MIAav0JmwUjEiUlpZWVFSkM2fHfNDM7TXMXb/5yDDMvcIrh8JSzfkE1A0CliNg0fe59MqJ4DSRtjNhu8qXbwQG2Z3y3Jwy3RgwI25EEQsR4Abx0lgS8mwqSmhcCd0ERyeuhASkyOVyqmAs1Ho8BgRAwBYJwJvY4qiiT+YiwJ1XS36OS6VS8hNZIpHgwwxzcW/qeq3Vm4jF4oqKCqFQeOcOZ1kBc9I0t9cwd/3mZIO6QQAEQAAE6iFAIk3ozsHcqToSiXpxbIYhH1WR38lomvtxVj2PwWUQAAEQMJ0AvInpzHCHPRKgn3ZIJBL6wQb9AIMEh9KgUXsEZNN9tmJvIhaLzb33MHfoze01zF0/ty9IgwAIgAAIWJIAER9cV0I/j6JyhLSH/E5GSpJL5F+EllhyvPAsELA3AvAm9jbi6G8DCHBDS8iPZvqjnNRGftZTjdKAR+CW5kwA3sTY0TG31zB3/cb2E+VAAARAAAQemgCZjEM/dOJ+BkUXKyEPIb+H0d+9dKbq6KyH8tDtQgUgAAIgYIAAvIkBKMiyewJ0tVdCgrgSkub+sKac4E0oCptMwJsYO6zm9hrmrt/YfqIcCIAACIDAQxMgvzzRRfW53sTIqToP3QRUAAIgAALGEoA3MZYUytkBAYVCwZ2PQ3+U68zN4Z4SKmQlMsSb2Oo7Am9i7Mia22tYe/2E45gRHdmtV3GYk8CYER2NfWtRDgRAoOkI0N+66CKvNPyEWBUaY0I+wqK/adFE07UdTwYBELAvAvAm9jXe6G2dBGhYqEwmoz+4de7Q+TlOrpKf+/ghrsPKZk7hTYwdSmv3GuZuP+EoEAiY0nfwn1kJsJBxgAAIWAMBugmOTrwJ/Z2MdIJEAuM3LWsYUrQRBGyTALyJbY4remUEAblcLpVKZTIZ96cwnZLD3TqHW5nOBx7kEpEpfKqFezvS1kgA3sTYUTO3d7D2+glHeBOzGhNSObyJsd+0KAcCzYAAUSfkX+7vUuRTKW5OM2gsmgACIGCnBOBN7HTg7b7b5KczkSB0Pg6j3tuOxo1KJBLuz2uDwSYMw/Dl2z1mGwEAb2LsQFq71zB3+wlHeBN4E2O/o1AOBOyDAA0tMfK3Lvuggl6CAAg0LwLwJs1rPNAaixDgag6iSOjWwtSnyJSHTnQJ95Qs307aqxNbapFO4CGWIwBvYixrc3sHa6+fcIQ3gTcx9jsK5UDAbghQdUI/raJrztFf0ewGBjoKAiDQHAnAmzTHUUGbzExAZ1oNsSHkJ7VOTCg5JauSkbskEgk3GsXMLUX1zYIAvImxw2DtXsPc7Scc4U0s700e5AWvmz9l1Vlj32SUM4lA2p8fzvx6f4LIpJtQGAR0Cej8BqZvUnRvwDkIgAAIWJAAvIkFYeNRzYUAN96EYRiuHOGudUIn4JCPOmgoCvEsdawd21z6iXY0EgF4E2NBmts7WHv9hKOp3iTo3VbqnWe89ucbsaDsoV4u6hvUXzttTTHiRt3VaqdvGCF4cd0bupqjaPS0lo+0nTrmDlt+0tIej7QcODhD994GPO7hbjna27XjE5fUzWAhqw/xdd9xXj2nfncgrlKdZcrXoHmuaow++++ZcqexZXN/HuU446BZqmabEPKJh6POMXFbhbGN45Qr+WO842RDd97NCv1lzlDPAfMCbik45ZEEAdMI6KxvolAo5HK5zq9lptWI0iAAAiDQeATgTRqPJWqyGgL0MwzSYp1TshceucQ1LOQHOnSJ1Qxz4zVU25uIyjKvh5308ztzo1CsPkTF6VfPnwnw9z8dEhGXU67OZr9W50QHBkbnirh5Fk0LhcLGQ1FPTdbuNczdfoLPVG9yN3VaTsxrOSf69xcY503y3siLeS0nZuqG5wX9P53A3hszXVzcACvB70283J706noi/x0mYtDA/m79m7M3uXt5UR/P13bmyut5eXkv363Iy8nJybnwn/4C6/Qmdyvzc3Nzc7P+8HF8avl5NplbIm4IDl5vomQnCv20X6dpe0p4QeICCPASoL+HSSQS3kK4AAIgAAJNSgDepEnx4+FNRoA7N4cuB0s+1eD6Ee6CJvjMo8lGq6kfzPUmJUnhp4Mik1OiAznepCQh7OT5+ILKalFpVnRQQGRWtdqM1BTGhgRcTq9UnzfBV3gT498fi3mT8LmOHjOH/DS+TVvn1r3H9Q9JJFLDZ1VfwZt/vU3iO6I+dXGZNU4T63F1yBB9b5IzeevbHl3atHByb+ez6IVbJVw58vb+VwRDVvhoaih9h0mftHFWxyc6PNqmQ7tJn47Lp+VTJnw3oV1Hp0daODr0Hdf/TDyph+tN3o5f4e7cd8D1gneYotHTWnWZ+6bzB3/PyvjG/YV3e/ak3sRw/a/5DhFMWfbs3MGOLm0ch80YkVzAbad+mq88Dx/9+JoRQ2m8Sa3f7PYDvonTDoMIX+jp8a8ff5rUq62Le++XloUUk3ckZdVAwZuHpOQkakk3lw9OaV6eDN8h+t6kNm7rnGe7tHVw6tDf55szDQ22UMabrD2wYGQXj049xn5yKJP+5Si6semj8YO6dOjQZfDU5acKaC8qwr9/7anH3V2c23sNnvJ18C11M2vjt80f27uja3vvp6b/X3AxLc9elx6c4TjCN1VdVPnVtPq53kSa4Dvafei3N+5z6ivdNtFl5K/ZnByGYaoDPuzh6jnh93TtbJyBgA4BssGhTiZOQQAEQKD5EIA3aT5jgZY0IgG5XC6TyQz+FCbruXLn5rC/UEqldFcd7sceOiu7N2ILUZUVEeB6k+KstKIqsbgghuNNROkX/SLSVRElxXEhgTQSpUR47mR4UlkT2BLNI+FNjH/VLOlNnDt3Xv33K8LQsYufetTjrbG17AQTHi9A5p4Y8CZvX17g4j5mUOBZn8QTI2Z1e3TKb9M5lkTfm8w6OaO1x3MDjwZMFp4eObv7o6/+rpqDE/NlW+cRA8MuTk0/O/77F52e+OwlZT0ab/Lg7KDBTq7fhc5i84tGTxN03vpHt67vj9owssOGjb3dVN6Er37Wg3R4qs/OgCnxx4ZO6fjIuB+mcdpp2JsYKs/DJ2d62mWflN+6tnXvfuCyT8pln5TYN6k3ufHtgPZzOfpD+TaEL/R09n5l9alYYczxxcNdPN7zr2XzTfUmsstfdXMfvyowNjnxwvZZPV2m7GpYsAXrTbo+v2x/lDDh7IapXVx9dhARcv/U3Me8Xll9PDIhKWr/nAEd3thfTl7m2JUD3cevPpeUlREX9sO0HoNWXFbmy64s7dN50pqguBThxV3v9fd4fW8pKa/8V9+bmFq/xps8iFsz3H3Y97EPOPUzDJO0eojL+ye0Q1lubZvYztG539c3tIviDARAAARAAASsiwC8iXWNF1prDAEiQUioCA0Yoeuy0xya0PEm5BEK5WHM41DG5glwvYnKR2h5k+rUC36XM1RXyuJDT13PV55UpEUEhMbdqtE4jKZIwZsY/4Ja0pu0nvacTClEpHu6O3j3u9YQbzJl5ROPzj2o8g7Jy91aT3+O4yP0vYmWobi8wNnjX+NJ+eDZrb3eH3+fCBrNv2pvUjBpRb+WTy97RUIusd6k4+brY17v1ab3sCHZ+3u0pvEmmnvf4dTPepPR/1W5kmuft2n9+nNyTklOm0kL+crzeBNSFc/6Jue/8O76VYTOOxC+0LP1rKMyZa70xGyHrouvsWlTvYlwZT+XuWdUdSf/d3Drd/x0HmTcKetNXtqsCnqJ+aa/u57oYRjmytJeXp+fIxWGfurZY+FZbqiHMj9p9RCPj4NVz0z5cXi7f/lzGqDvTTgXjapf7U3ux64c5v7s/+JoWIy6osINYx1f2627POzdspyiGgJbXRBfQQAEQAAEQMDaCMCbWNuIob31EDAYSEI2xCGiRCqVcrfOkUgk1LPUUzUu2ysB47yJKOdaSHhSCfUm1dlRp89cy2On7BTeCAyM0ayGYll7Am9i/HtrSW9CnQUT/+K2tePz2T/+6/QCBuJNJi7qLGjZqoVDa/a/1o8KBK+Mkmp8hAFvUnx0kE8/J1dHZfmWAjoPqPZEvz6tW3oPfmzWBwM3H3xVueDrO0wp601aPNrCodUjAreewYVq7cJ6E/f1N94K+7bnkm1TmZ3dBGpvwlM/60F8Ns4gfiTjW3fBxGfvadqprlaTw1e+Tj483uTc514GvYnHx2GqF6PowrYtYfnsianeJGqRt6BlKwdytH70EcG0/apJPsa/c2xJrXVhM5WLxJJ6Ss59P31YD8/2rq6uru1cHD0+CiQV10Ysf9K1fc+RPu99sfrP4PQ7qsdFL+3p6NKWLcyWb+PkOOMgpz0GvImJ9bPexLmNsimPzQ/VsyYMw3qTqbt0vQmDAwRAAARAAASsnwC8ifWPof32gBtCQlSIzkolZIVXokvI5jg6a5QQyUK2Fta5ZL9Y0XM9AsZ5E5UNUXuTMuHZExHpVcpceBM9pg3LMLfXMHf9pNcCgYBd30Qd68GJtqjTCxj2Jq1n/6GcmULmp8S9xalNz5sUjf/QrdWLK8bfVBY+/I4T9SZM6Tt3YiceXTt4ydue3R1aPve/V5X1sN5k1LKJKWef8Wnb+u2db6oqV3qTn2PUvmNHV5U34a2fz4Ooa9AYE5LDV75OPjze5MKiLo9/Ga7zvrHrm1BvornWAG/iNntviuYorNFUZkKKx5tIwxZ09pzsGxafkpqamnp0QQ/qTRiGuZN/9fhfa5fPf6WvW/sJf2Qqnxa9tKfnnL/ZwqqjiNsePW9icv2sN3n+f9GpcX9N79T5/RP6fiRv/WjH1/eKTeg6ioIACIAACICAlRCAN7GSgbLHZsrlcrIBsMHOU+VBo0WI+ODOviE36ucYrBCZIMBHoD5vore+SUyBWFwcF+LnfzJAeZz0P454Ez66puSb22uYu37SV35vMn3jSMH4n8gaJW+ffrtVt08najxI9JCndNeFnbLyiUdmbleuOVL6zp0En/jYOr1J7NPDBY/tzFTZipD3Wqu9ydv3s96sVYeTpH/TXjB+xG3WZajn6ZS+k/yN+6O9+scUKe/l8ya89bMehDtPx2H6cwqOK3mQ9nppLteh8JWvk8+x3m6G9iEWrhnq8taBu9qvGY83Kd04VjB+M1kTRH56TrtuS6I092X+9JTuurDClf0enXlEtcbHnVvJ8Xn6KkFTAX+KZ55O/sYxjj57VOpDEfZZZ7U3kd8Xi2rV4R4Z60Y6Tt11m609afWQNrP91O0pTknI57ZHz5uYXL96ng6jSFk7qs2TX8dyolmUvYta3N19QZDWarT8vcYVEAABEAABELAmAvAm1jRadtBWhUJRR+QINySERpEwDEMcCnf2Da2ERqDYATx00VwEtLxJjfLIZ9eFLWCTbEAJu59OeHxBpUi5n87JSxnVYnFNdWW5+si5hnk6jTI45vYa5q6fQOD3Ju8IV7i1fqLngaApsX8PHN3Gcf4/MzXeJGf01FaO726aks3uK/y6iNUc7LqwzoP7HA3xSTo9ak7vluN+eE1TvlQv3qTwhQ9cHx39xbjYy1MiNvWZ1MVB7U1m7JnYwnvK0LBzr2ZdenHt+NYe749Xeg2NN2FyJ8x7rOWEn5RrlPB5E976WQ/SaWifnaemJBwbOqWT9rqwKaOmOAla9h4YpzEpvOXr4nN58MAW7Zf+Mznlsk9awgy6Lqzs0uJuHWccqdZ6AXm8CSNcM6R1v7kHribGnvp2dNvH5oeoZ8AwDFN7YGorz3f3JWazmxIXiVhtwa4L6zz0y6PXkpMi98/p6zju91zOY4rP/rFmze6rRkRfsN7Ea8zi/VFJynVh203ZrlwXVhLykafHC9+eiksRXjqweGpfL7U3ub3/jbY9Z/5xLj4zO/nSL1M7ey08q3QV7Lqw7iOXHI9JSY46OH+w20ub8zjt0fMmJtdPvQnD3Dn/SQ+3V/5UTm9SP0MSvbyv2/SDXFfDXsr+c+aIER/sVS3foi6MryAAAiAAAiBgXQTgTaxrvGy+tcSGcA2ITCbjbnBDVioheoUs3coNPOFOzCH75pBoFHKXzdNDB81EgOtNcqMD/LhHaFyxWCwWFaddPXfmpL9/QFD4jexy3QVMME+nkUbG3F7D3PUTDHV4EybfZ+/7HXu4Pdquc/tZqydWaVTCO0zprPh1XQa2b/GIQCAQuK65rAzQyH5l8wx3b5cWLh7tJi8cm1fMjdrQ8yal7xQe6P9iDwdnJ4dBU4bu/Lid2pu8I7065pNRbdq3fqSlk0Pf5/sZ2of4ncJfHnPq0D0wm+yn425gng5v/awHeXXFyI+GKPchfmtEEncf4oxxH3o/6jF6WLqms/zl6+LzRtCnHb2cWDwus8ZRb8Iw+dt9PLvP2JHGiTnh8ybMvZS9C8b2cHdp5/30rPWRVVrvrSR+61sDPRyU/AeuSVFeu31z8/vDvds4uHTsP3mZfx53J5mafVOdHYf9L0mrDsMnrDd543+7Phz+uHvH7s8t+DtdHUtSFPTN5IFe7u7ew2b+sWfZYLU3YaSZR794acBjrs4u7t6DfVZo9iG+Hf/n3DE9O7h6PP7UtK8D8rntMbQPsYn1c7wJwxTtfLV9l7lBykAX1iGVhHw5tMPw1TE6W+wwtw+87uL47FpsQ2x47JELAiAAAiBgLQTgTaxlpOyknUR2kLgSuVxONApZupX6ERp1QgpIpVIqVvRvJGuX2Ak9dNNMBLjeRFeJNP9zrAtr/GthMW/CiQrhmg5bTSs9yO+qdWGN6Lup5Q1w43gThqmN/31ajw69JmyINf5deNiS8tBPPZ1G/5bzsPVYxf1FRz8e7Ok5enlYuf4cnQuLvBxHbbAPDlYxWGgkCIAACIBAwwjAmzSMG+4yHwG5XE7DQ4g3oaucEHVCQ06ITyEt0YkrIQEpcrmcShbzNRg12zwBeBNjh9jc3sHa6ycc2T/pNbEVBv7mt7mrrAeh++kY0TtTyxtgqOVNWO73Cq8cCks19k1++HLxq4e0eXkrWSvl4Wtr5jWUXjkRnCbSdyYMw2SsG+n0/MbCZt4BNA8EQAAEQAAE6iMAb1IfIVy3EAESacIwDDEg3Kk61JvQCBTufByiSGhkioWai8fYEwF4E2NH29q9hrnbTzgKBILf7Ov4v1e7CAa8u1an0/wCxRzexNh3uJHKVf45yfWN/doTfRqpaquq5u7BGa4TtyiXa7GqdqOxIAACIAACIKBDAN5EBwhOm4QAESLElZA0N6hEIlFP9mYY4kdIFAl1JRKJBKElTTJwdvJQeBNjB9rc3sHa6ycc7S/exEA8CL80aZzCevEmxr7DKAcCIAACIAACIAAC+gTgTfSZIMcCBMhkHLrrDVmghJzSxUpIM4gcoSV1pupw10OxQLPxCPskAG9i7Lhbu9cwd/sJR3gTc0sTpvQdeBNjv2lRDgRAAARAAARAwAgC8CZGQEKRxidAZ9yQyBGuNzE4VYeueEJK0tPGbxlqBAE9AvAmekh4MsztHay9foJtzIiO7JY4OMxJYMyIjjwvKbJBAARAAARAAARAwGQC8CYmI8MNjUSA7o9DFyuhQSV1T9XBUq+NNAKoxlgC8CbGkrINr2Fsb1EOBEAABEAABEAABEDAPgjAm9jHODfTXtJNcHTiTXSm6shkMqpUmmlP0CybJgBvYuzwwpsYSwrlQAAEQAAEQAAEQAAErIcAvIn1jJVttpSoE+4eOqSfJBoFusQ2R93aegVvYuyIwZsYSwrlQAAEQAAEQAAEQAAErIcAvIn1jJVttpSGlpA9cWgnuVN1aCYSINAkBOBNjMUOb2IsKZQDARAAARAAARAAARCwHgLwJtYzVjbbUqpOaHSJQqEg8SZSqdRmu42OWQ8BK/YmZWVlQqFQLBZbhrateJPSLa907NL/hXk74u9aBhyeAgIgAAIgAAIgAAIg0IwJwJs048Gxo6bpzMrRNyl2xAJdbX4ErNWblJeXp6amVlRUpKam1tbWWgCsrXgTWXWe8OrBBQNdnt9UYAFseAQIgAAIgAAIgAAIgECzJgBv0qyHx24ap7O+iUKhkMvl2DfHbsa/uXfUKr0JV5fU1tZaRp3Yijchb2TQ3Pb9vrvZ3N9OtA8EQAAEQAAEQAAEQMDcBOBNzE0Y9ddNgIaWSCSSukviKgg0FQFtbyIqy7wedtLP78yNQrH6EBWnXz1/arlWAwAAIABJREFUJsDf/3RIRFxOuTK7Mincz++4+jhzo0hd2AJfKysrdUSJZdSJTXmTO39Pcxz9W15TvXV4LgiAAAiAAAiAAAiAQHMhAG/SXEbCjtshlUplMpkdA0DXmzsBrjcpSQo/HRSZnBIdyPEmJQlhJ8/HF1RWi0qzooMCIrOqxWJxRdJ5/6hsC0gS3UfU1NQIhUL9iTm1tbVCoZAuI2QO6jblTfI3jnGcuu+2OTihThAAARAAARAAARAAAWsiAG9iTaOFtoIACDQFAa43Kc5KK6oSiwtiON5ElH7RLyJdRPxFcVxIoDISpVx4zv9qjq7UsMy5UCg0CIov32DhBmTalDe57TfLfciKqzXyBoDALSAAAiAAAiAAAiAAAjZEAN7EhgYTXQEBEDALAa43UXkPLW9SnXrB73KG6kpZfOip6/lisbgs8ax/eGRk6OmTJwPPRmeUWcaYkKfw+RG+/MbCZlPehGGy977Z1dnJpZ2r60jf9MZihHpAAARAAARAAARAAASsjQC8ibWNGNoLAiBgaQLGeRNRzrWQ8KQSjTdJiggMu5ZZVi0qy4wK9CeTdywkT4gfEWofDMPAm5jw7twPne/dY/a2ywkpqak5FQ9MuBNFQQAEQAAEQAAEQAAEbIoAvIlNDSc6AwIgYAYCxnkTlRKh3oSrSHKjA4Jv3uLmmDfN50f48hsLmk3Fm+T9Ntrxtf2W2L65sfCjHhAAARAAARAAARAAAbMQgDcxC1ZUCgIgYEME6vMmeuubxBSIxWJRVUWlqIb4kdzogJC4YvO6Em7tfH6EL7+xBsumvEnNHh/HcX8UNRYb1AMCIAACIAACIAACIGCtBOBNrHXk0G4QAAFLEdDyJjXKI59dF7aATbK6gt1PJzy+oFKk3E/n5KUMdj+dsoSwgIik4uqa6rKsq2cConJUC8dy/Ya50nx+hC+/sUjalDdhAue4DlgV31hsUA8IgAAIgAAIgAAIgIC1EoA3sdaRQ7tBAAQsRYDrTXKjA/y4R6gyjERUnHb13JmT/v4BQeE3ssuJDlFmBp709z8VEhGXU2EuR2KoXiH/YVZoNuRNFLVC3+ecn1mL9WDN+sagchAAARAAARAAARCwBgLwJtYwSmgjCIBAUxLgehNDlqJ555k7xoQ7MrbiTUq3TGrj7OQ54qtTZdzuIQ0CIAACIAACIAACIGCXBOBN7HLY0WkQAAETCMCbGAvLVryJrDo/65ZIYmy3UQ4EQAAEQAAEQAAEQMCmCcCb2PTwonMgAAKNQADexFiItuJNjO0vyoEACIAACIAACIAACNgDAXgTexhl9BEEQOBhCMCbGEsP3sRYUigHAiAAAiAAAiAAAiBgPQTgTaxnrNBSEACBpiEAb2Isd3gTY0mhHAiAAAiAAAiAAAiAgPUQgDexnrFCS0EABJqGALyJsdzhTYwlhXIgAAIgAAIgAAIgAALWQwDexHrGCi0FARBoGgLwJsZyN7c3MbYdKAcCIAACIAACIAACIAACjUcA3qTxWKImEAAB2yQAb2LsuMKbGEsK5UAABEAABEAABEAABKyHALyJ9YwVWgoCINA0BOBNjOUOb2IsKZQDARAAARAAARAAARCwHgLwJtYzVmgpCIBA0xCANzGWO7yJsaRQDgRAAARAAARAAARAwHoIwJtYz1ihpSAAAk1DwIq9SVlZmVAoFIvFliFnKW9SuuWVjl36vzBvR/xdy3QMTwEBEAABEAABEAABELBjAvAmdjz46DoIgIBRBKzVm5SXl6emplZUVKSmptbW1hrV14crZClvIqvOE149uGCgy/ObCh6uxbgbBEAABEAABEAABEAABOojAG9SHyFcBwEQsHcCVulNuLqktrbWMurEUt6EvJFBc9v3++6mvb+d6D8IgAAIgAAIgAAIgIC5CcCbmJsw6gcBELB2AtreRFSWeT3spJ/fmRuFYvUhKk6/ev5MgL//6ZCIuJxydbZYLK7KiDwdFn+rhpNlgWRlZaWOKLGMOrGoN7nz9zTH0b/lWfvbhfaDAAiAAAiAAAiAAAg0dwLwJs19hNA+EACBpibA9SYlSeGngyKTU6IDOd6kJCHs5Pn4gspqUWlWdFBAZFa1yo2ICmKCQ2ILRRZQJZpH1NTUCIVC/Yk5tbW1QqFQLpebj6dFvUn+xjGOU/fdNl9vUDMIgAAIgAAIgAAIgAAIsATgTfAegAAIgEDdBLjepDgrrahKLC6I4XgTUfpFv4h0lRwpjgsJVEeilCaeC4nJV0sUjdkwe0ooFBrsEl++wcINyLSoN7ntN8t9yIqrNWb0QA1AgFtAAARAAARAAARAAARsjgC8ic0NKToEAiDQyAS43kSlPLS8SXXqBb/LGaorZfGhp67nsydVGZGBwecvhAUFBp2LTiu2ZNAJnx/hy28sYBb1JgyTvffNrs5OLu1cXUf6pjdWH1APCIAACIAACIAACIAACGgTgDfR5oEzEAABENAlYJw3EeVcCwlPKqHepCQu9FREUrFIXFORFxPqH5ZYavYwE/oA4keE2gfDMDblTe6HzvfuMXvb5YSU1NScige6o4ZzEAABEAABEAABEAABEGgcAvAmjcMRtYAACNguAeO8iUpaqL1JWWLYqWt5qszqlAt+F1KqVGfm/8LnR/jyG2vsLBpvkvfbaMfX9ltie+XGwoN6QAAEQAAEQAAEQAAErJIAvIlVDhsaDQIgYEEC9XkTvfVNYgrE4sLYMwHRuSpFUpUc7heRarmFTvj8CF9+Y8G0qDep2ePjOO6PosZqO+oBARAAARAAARAAARAAAcME4E0Mc0EuCIAACKgJaHmTGuWRz64LW8AmWTPC7qcTHl9QKVLup3PyUka1WCzKiz7NZlZUV5dmRQf7X0jhbk9s5pATPj/Cl6/u6cN+tag3YQLnuA5YFf+wbcb9IAACIAACIAACIAACIFA3AXiTuvngKgiAAAhwvUludIAf9wiNKxaLxaLitKvnzpz09w8ICr+RrRIk1YXJV84G+p/wDwi+EJtjQWsiFgv5D7MOpwW9iaJW6Puc8zNrsR6sWUcUlYMACIAACIAACIAACGAfYrwDIAACIFAfAa43MXOgiBmqN3eMCZeepbxJ6ZZJbZydPEd8daqM+3ikQQAEQAAEQAAEQAAEQMAMBBBvYgaoqBIEQMCmCMCbGDuclvImsur8rFsiibHNQjkQAAEQAAEQAAEQAAEQeAgC8CYPAQ+3ggAI2AUBeBNjh9lS3sTY9qAcCIAACIAACIAACIAACDw8AXiTh2eIGkAABGybALyJseMLb2IsKZQDARAAARAAARAAARCwHgLwJtYzVmgpCIBA0xCANzGWO7yJsaRQDgSsioBceVhVk9FYEAABEAABEGhMAvAmjUkTdYEACNgiAXgTY0cV3sRYUigHAtZAQC6Xy2QyifqwhiajjSAAAiAAAiBgFgLwJmbBikpBAARsiAC8ibGDCW9iLCmUA4HmTYCrS4g2kclkzbvJaB0IgAAIgAAImJEAvIkZ4aJqEAABmyAAb2LsMMKbGEsK5UCgmRFQqA/SLqlUKpFIZDIZmaEjkUjkcnkzazKaAwIgAAIgAAKWIwBvYjnWeBIIgIB1EoA3MXbc4E2MJYVyINBsCCgUCmJJuHElCoWCNlAul0skEm4OvYQECIAACIAACNgJAXgTOxlodBMEQKDBBOBNjEUHb2IsKZQDgWZDgIaW0Lk5OqElpECzaS8aAgIgAAIgAAJNQADepAmg45EgAAJWRQDexNjhgjcxlhTKgUATEVAoFHK5XKo8GIZRKBQSiUQqlZLmEHUCb9JEg4PHggAIgAAINF8C8CbNd2zQMhAAgeZBAN7E2HGANzGWlLWVe5AXvG7+lFVnra3daC+HgM58HIlEkvbnhzO/3n+zgl3HhBQkU3J0vAmZv8OpCUkQAAEQAAEQsDsC8CZ2N+ToMAiAgIkE4E2MBdY8vUnWF9t83TYp/zslvG9MX8RRL5Dym9Z23rVjdnRuaV13mVy/NP2Yx+ZfPkiXsLWWnR+6+afnrlfV9QSLXDv3uWfXryINPUp83XecV8+p3x2IqzR0ub68oHmuAtXhs/9efaWV10/MdlDfwn4ds6FA/7ZLi7xd5wXp5zd6jsntD5rnwm09m35+a3kD2lW8YYzgRf07pYemtWzZ9q3Dd9gqY5b2btlyyJoMI6onToSs9koWK7mbFfrLnKGeA+YF3FKtZkKm5MCbGIETRUAABEAABOyLALyJfY03egsCIGA6AW1vIirLvB520s/vzI1CsfoQFadfPX8mwN//dEhEXE45m12desHP7zg9/PwCYwrUxS36VSgUmt7lBt7RPL2JtFIsyhOLLl/Z5maCNzm0pVqUJ65KyL00dccvb6fW8fe+yfVL048NOLRjYEjafYZJjt4++tC25uxN7l5e1MfztZ25Dd5M5W5FXk5OTs6F//QXGOtN7pTn5uSk/jxB0GdRSE5OTnGNgR1wLeZNTG6/6obMDRMF/ZecZfueUyxuCD5+b/L4k092mXXiHsMkrhr45JP99byJQqGQyWRSqZQGktApOSSHbJ6j/D4XhX7ar9O0PSXqOTsSiVLocf4fQGQK1oXlIEESBEAABEDA7gjAm9jdkKPDIAACJhLgepOSpPDTQZHJKdGBHG9SkhB28nx8QWW1qDQrOiggMquaeJMLqdVEkZQlnj1xMa3Kor5E/TCb9CZ5S3f99klM1Jv7f/Ha8efrkdk0HuR2eexnx7b0+OvXfof8fiqo5Y501o2d+t7kTnnsZ0c3P771514Hjvw397bqQ3c23uTYP+q/1YPP/tz7Qj5bVdWlkZuO+6n+Ai5auXf9pzmaJxhfvzT9WKegwPl7TgfLqn49cuDzs1upNxGVXv/U788n/vrlib8Pr8yu4bTnyE/Jgc/vWv/4rt0fJ1XUEzWT+/Mox9f/t+fjkV09OnYbNXdXiqp86pqhjm8fUa1kEb28j8dHgWz7Qz7xcNQ+xv9Rou5Yrd/s9gO+idNsrsJeCF/o6fGvH3+a1Kuti3vvl5aFFKtLi29umTOqu7tLO68nX199llbCXs7wHaLvTWrjts55tktbB6cO/X2+OaMOeiC13dvtIxi4KlFdtfJrSdjyib3bu7j28Vm/8ePHGxxvwtP+lFUDBW8eUvGJWtLN5YNTmqeb3H7p/mmCIWtSNDUwDFN9feMHY57o1KZNp76TlpzMp1TLz333Sv+Ozi1bOHn0fWnZmSJyE9ebSOPXPOM8cPn1+wwjPTSt9ZtzZ3f54NSDjB+feWHunJ7Um6jrb+81YPKSE9kP2Bk2Ummm7zDBlNU75w71dGv/+PB/bUusZfcYJgdrQ0q3TXQZ+Ws2oxVsUh3wYQ9Xzwm/pzOMwUVPtPqFExAAARAAARCwdQLwJrY+wugfCIDAwxLgepPirLSiKrG4IIbjTUTpF/0i0kVEVBTHhQSykSiiW5nCzFsk81Zc8EmlTFG7DEt+tVVvsr5/wKXgsvKbWecm/PXbgmzlR+Tywm/2/fz8xZQblaXnYw8/se24HydMxIDXUBR8vXfD1OjM+Kqyy0n+T/115G/l1AeG403u1iTN37vWJ+E2+xaZ6k146pemH3MLiD0Usvmr1GuTj147cGGDypvI0j/e/ttrV1OiKsqjUwKe/uvowbvKl5dtz28TIuKjKksvxB3ps+Xvv8R1vtSsN/Ee8+89kcKE87+/3rXNS5uV2ofh8Sa1Jempqal73+voPedwqvLIr1ZLI+bGtwPaz+XoA+WDwxd6Onu/svpUrDDm+OLhLh7v+SsVlTTy3z2chn5x9JowPvTnSZ1c3zxUoWmnAe8gu/xVN/fxqwJjkxMvbJ/V02XKLq5p0fcm94PmdXIc+uWx68LYgO9e7e72MN7EUPtN9SZ1t1/fm9w/+X57jwkrj16KF0bumd2rzat7ygifmBW9ncesDBNmpseGfD/Z64mlF5X5Gm/yIHbVYOdB38U8YPOlh6YJXtm69+2uC/ZtGDtyw+5P3FTeRFX/kYib8Rd3v9e73at7ypQqJOPHZ1p0GP75zkuJsaG/vOrtNH5jFolGIeqEYZJWD3F5/4RMfcouFisr+Guiq5Nzv69vMAxZRxbxJpqXGSkQAAEQAAH7IwBvYn9jjh6DAAiYRoDrTVTGQ8ubsFNyLmeorpTFh566ns8VIzX51wNPR+fUcPMsmLZVb7Jubib5tF5+OnTdoMu32DGtvjx68/Fjqj/5b/3fvl8/z9UMtQFvUhkx/K/AMFWRinWH1s3LUp6wnuKnjlvXeW5d237TryNC4tJInaZ6E576WW9y/EZuut8z+/98KaY6KGwdjTfRNJcp+HrPb/8mvoNtz77NSnXDMLdW7aN95xTnJllv8sLvqjVBYr7p3+79E8ogGR5vQm7lWd/k/BfeXb+K4NZO4k1azzpKoEhPzHbouvgaWyLt+ydbvHFQFdwSvaxHu7lnNDca8CbClf1caJHk/w5u/Y6fpjyj702SvutP65cH/KvNw3gTQ+031ZvU3X59b8LpHMNc/upxj49VL1/wR25eC0L1oojU3uR+zIpBzk+vjlXNn2G9ydjN2Ydf79Or98gfswP+1ZrGmyifQMJGLn3VxePjMOV2ORm+I1qN/iWPYRiJRBL1nz6t3z5KgqaIKJHL8zeMdZy2q5JsrENul0gkt4uzigzNkNLqBk5AAARAAARAwD4IwJvYxzijlyAAAg0nYJw3EeVcCwlPKtHzJqKcqABlBIoFXQn3UbbqTdROgWGKi27uzK9hx7ckrP9fZ9R7vlRt+Mf33VTNshIGvElJWH+VH1nnuXVdh03q8qynOLSxoiI5ya/LjjNnaeyFqd6Ep37WmxyJzpfkbDh7zk/EnAzxVXuT2vCrR0bt/vUxVtms89ikngfEtufIAdVfzWy/ZqaoJpMYfqtZbzJ9n8qzZCpPlIE3DfEm5z73MuhN6N/8TNGFbVvClIInapG3C12qNcN3mGDafk07DXiTqEXegpatHMjR+tFHtMob8CZa9T/M+ibsPB21s+C031RvUnf7DXiT4rDvfAZ5uTqxPW7dUkDnAdWGL+nj4OQ9dOKsT1ZuPpNGop4YhvUmLR5VFm0/J5iuOsJ6k2fW54rDfOcsOZzJHHtboPYmpH73Ns5t2rRxbNWC1M/O0xnR6tXd7LeIQqFgx8VnNwnEUk/AUXqTnRVEo5B/ZTIZAkwMf3shFwRAAARAwC4JwJvY5bCj0yAAAiYQMM6bqFyFrjepTr/sH3KzmGsyLJu2fW+iGcoGeJPtAYeqKtLV/91SzoPQzNORZ32xc/17aSTX9Hk6JWH9DdXPepN/rrIf/ysPf7U3keYH9th26Of8kjS2PckLdzcHb3JhUZfHvwxXt1X1Vcs7aK5peQ3jvInb7L0pmqNQqb9UFerHm2jV32jeRNP+BniTOtqv502kIR+6u764JuRmMtvjwx96UW/CMMydvCtHt/ywZM6E7o5Oz/1Gtsdhvcmo1VEpsVt82rm/faxa1VLWmwz7mS6tc3SWypuo649NShYKhYfmPk7ql8uzWW+yS3V7hu+wR3S9Sc760Y5v7KnibrWjoYIUCIAACIAACIAAw8Cb4C0AARAAgboJ1OdN9NY34eycU5l8wf+csMyyqkTrafbkTeqcp5N9Y5fuurCVEcO3nDihCieRlFSVFuh4E0YRdWlTh+OxqnVn716fvOngDrLmiCLzs21bVnLW4zC+fj5vUnBzj9vJePXSJdmLdnC9idY8HdV8ItV7+6CqqOwOXWKUYRjdeTqu//JXXi7b9KLjpD/JmhryM/M79VkerXn1z39hcB9i4ZqhLm8dIH2mhXm8SZ3zdDJ/ekp3XVjhyn6PzjyislJ3biXH54noIxgD8SbClf0abZ6OJt5E88jSjWMF4zeTwZafntOu25IozUWT26/nTfJ+GS6YuFOlhhQh893V3kR+X1xdqw4nSf9xqGDSdmWwkHqeDqNI/mHYo32WxZDoHT5voq5fOTfnQdCCTqR+hYL1JmN/ySbxJlH/6dNm9lF2ox0ZXdAkanF39wVnNLFZml4jBQIgAAIgAAIgoCQAb4IXAQRAAATqJqDlTWqURz67LmwBm2QdBbufTnh8QaVIuZ/OyUsZqm10xOKyxLATF1IqtESGhU/syZsoCr9l14VNVa8Le4K7LuydtKMdd508XFmdJxbl1d5n/0xl121dz64jW1UenXp6+Fb1eqvsvBj1fjrl4UM37fpF9Vl9+c+H1w0/l3S9siT46r7HdwWd00xDYYyvn8+bSPJOd/tr3+rskrTK/MMXDw/W8iYbX7oYf7WyTH9d2IoDr7s7ugxeFa95i1lv0mXs4j1XhInnf3+9G10XlknyHdFuyMeHrwnjAle90LHbZ2HqGSEMw6T6DnV+dkVYfGpqanqxZici2aXF3TrOOKKOdSAP4fEmssjFPZ2GfnFMvS7sW4c568LWHpjayvPdfYnZ7L68RSKWP7uuqvPQL49eS06K3D+nr+O431Xr0fDsQ8xdF3bl5C5ttdc3KT77x5o1u6+qvZMGh36Kp/2McM2Q1v3mHriaGHvq29FtH5sfwuFjSvuVT9TzJpKgD9xcRi8/GZucGLHvi0ndPdTe5PaeV1t5T98QdjMjKyli7SR3jwWhSs9FvQnD3Dk7z8txwmZlkJL00OstnlmXKZVKpXK5nKHxJsr6xyz3vyFMOL/ni8m9PdvOCVC2JMd3RCuv0V/uvJyYcPbXKZ1bjd+YRafksJIlenlft+kHuc6KvS37z5kjRnywl+6VpI8ROSAAAiAAAiBgPwTgTexnrNFTEACBhhHgepPc6AA/7hEax07BERWnXT135qS/f0BQ+I3scmpGim4G+19KpxaF5lsyYU/ehGFul8d+emxL979+6XvwmM4+xIy8dFfQ9p5bfd02+bodjExXvgy15Tc+PrLJe+v63gf++b/sGtUn7lxvwlT8fNh3yOViEs9xvyrxq+Nbe/z1a/9//P8o5uzWwzDG18/nTRhGHHrl0NAd6zvv2PFeXPw3f3PjTY7+nHrmBeU+xAuSyrkriIoCFzzh4fXyJjK1Q9kr1pu84fv3p6OU+xB/uCuZlr+X+vfCF/t19ujU89n3fovSliEVIcsn9HB3dnR0VO1PrPp2yd/u49l9xo40TswJn3dgxDe3fDCqe3uXtp0HTdPZh5iRxG99a6CHwyMCgUAwULU/7+2bm98f7t3GwaVj/8nL/PPUEQ8nZjuwpdTHmA2qNW4Zdh/iXu2d2/V8+cf1H3lreZOafVOdHYf9L8mYb3Le9t9L2btgbA93l3beT89aH1mlVZcJ7Vfep+dNGKYw8D8v9vZwdu4waPqGnf/uq/YmjDTj8CfjerV3aNHSuUPfiUsN7UPMFG572anT+6fFCsndA9Nbjfg5Q6U+pEfY9U3SFQqpVJp76j8T+3m2bes5aPqvOxYPcJ1zUtkS1pu8tmbPR8M8Xdo+Nuy97cJ7CnKw7qok5MuhHYavJlv1cDp8+8DrLo7PriXfJ5x8JEEABEAABEDALgnAm9jlsKPTIAACJhDgehNLGo/GeZZNehMTRs8WirIe5+hB9USO+nuk9Cb7NTEj9d9Rd4na+N+n9ejQa8KG2LrLNeVVeeinnk6jf6OrfjRlW8z4bCJL2DAT5SKv9FQ5N4c9k8lk5CrdFkciYffTmapcF1anZUVHPx7s6Tl6eVg5d5oXKXRhkZfjqA22zlMHCE5BAARAAARAgI8AvAkfGeSDAAiAACEAb2Lsm3DrlnI7YGOLo5yRBLT20zHiHtab0P10jChvTJF7hVcOhaUaU7JpysSvHtLm5a2qhWiapgmN/FS5XE7dB9nahsoR+iS5XE42D2bjnZQyhV5iY0lUK5hk/PhMC5/dqv2VuAVKr5wIThPpOxOGYTLWjXR6fmMhtzTSIAACIAACIGDHBOBN7Hjw0XUQAAGjCMCbGIWJYRh4E2NJmVauOXgT01ps8dKVf05yfWO/9sQankb81myODRs28LVlg95BSpJs7l36OdyryvT/vdpFMODdtTr5PHhI9t2DM1wnboEGrRMSLoIACIAACNgTAXgTexpt9BUEQKAhBOBNjKUGb2IsKZSzSwIKhYJGhZApNiSQhEy6oWkSRSKTqXd6UhYlV3Xu0ilpl1DRaRAAARAAARCwBIF6vYlceViiKXgGCIAACDRLAvAmxg4LvImxpFDO/gjozLIhk2hkMhnNJ6uTEIcil8vJ0q10qg7RKESUSCQS8ssZ0SjUxdgfVPQYBEAABEAABCxEgM+byOVy9cRY9seyhVqDx4AACIBA8yMAb2LsmMCbGEsK5eySAF20lSxHQqwHWaCE/spFo06oWKGuhDCjJSFN7PIlQqdBAARAAASahoC+N9H5iUw//2ia9tnKU8tfeAL/mUrAVgYf/bB6AvAmxg4hvImxpFDOXgmQT6VI74n4kEql5JSKEmpVdKbq0LgSMt+HntorS/QbBEAABEAABCxHIDc3l4SC0k84SEwo+VCEfMiBH80PMx6mygKU1yHwMPBxLwgYJHCnLMKk/+BNDGI0kAlvYgAKsuyeANEc+guUEFFCvQk3roSkySwe+nEWLWn3RAEABEAABEAABCxKQKFQZGVl0UBR8sEGFSj0Aw9ujkXbZ/0PowrA+rvSBD0AvSaAbh+PNEma3CmLgDcx9r2ANzGWFMrZEwHyeRT5XYpIEPJ5FF3ZhMIgv5CRj7PoL2cSiYTk0GJIgAAIgAAIgAAIWJKAVCrNzMyUKQ/yA1ontIT8rLdkk2zsWeQvfxvrlCW7A4CWpG0/z4I3MddYw5uYiyzqtSoCZDIO/dCJBI+QU5KmkSM6v3txp+rQyTi0HqtigMaCAAiAAAiAgLUSUCgUOj+RJRJJVlYW6Q/3IxDaQ3gTiqIBCfzN3wBo+rcAoz4T5DwkAXiThwTIezu8CS8aXLAnAuQ3KrqoPtebMMz/t3cm8FEU6d/n3d0/hgQISYBwGC7U2FDZAAAgAElEQVSVG2FBBWEVPFFRDi908cALdddrEUVRbhQxSLgE8YBwimIgCYEQEggghBtyQg4g4Qx3wggKc9X7qa7umpqZ7slMMjOZmfz6o6S7uvqpp75V08evn6omPKiEECLelrEv6XhwVjnzmaQNz3f7um2HDXuk1jg/b9EtzWc8/urenD9rUuto1rWm8QnU+gZqvTQ7LnaAAAi4kwC7ZPOQTz4eR6/XHzt2jJXE8tjEm7BD3OlKTbKFB363tDYwugUjjIgEoJuINNy5Hli6iX5X9KCH3/j5hDsJ2dq6cXzD1288Nj7NNh3b/k6AzxVnP+ZZfE9lP1THc9Elhvx3w74c+s3RnKKrf0l4jZfLDu/MfL/D+AFzy/2dtxv8r2l8ArW+gVovN3RxmKjZBGzuNwq+e+XZT5dm4+Rv1yvY5Vuv15tMJpsrMv+eDssD3cQOniXB1f6GB34Luyqs+SxGV/tDFRh49VBfq5eNP25hAd3ELRhVjHhNNyl6e8HUBnOnNpj71b/zjSqOuCXpauLbbaP6fJ3jrLHy9An92zWqFxQUFBTxeooTR+n2Tr23WZsnxi7PvKTkvrFywNhuH58gF/Y8XXvW1Fwl2Zm/29d3a7Rmk31OIf3E1/Mja4+l/wVP6tx9RXT6H/bZLSkpa25jmWuPHbZc/uSLZa/amoftm9Y8Nb5ZxMr4a7TsrNExzep8O+OImh8+ksbH4LAXUylr2jKeN40dtuxPPR+qI36c2MbzhFVRShPQVuuXccYmAyFEaF/7nVYpl/Y+W/uH70qt0gghaa9MuvNzFcO2+eTtIx81mvbJdo2dziWfm/1DZP89vNMrBxX+L0zqnEKVBy+QGlvJ4dm/vs6HEF/sD5ptUp6e9uRtU26mrTn5Xcv50A39R7NItsOFdqzC+bYCJ7R3J78WWkteBixlAqZ2ZrZnzbCblEPo3z4xJ+2P+P395qGvJdunO5FSEn130DMrnHPFCXO2WVLeiqAXRXF56PuLtrmc2D47576gRyt1pBPGlSyb3ols8cEOZYv+9bT/brMvOq2ybn+/8efRjd8M7x7Z8bXEM2aVA5xN8u/+wwbjGAwG/vU6/qqDT0MmSidMN7F/4cFoGVLfad7mf9vNAk8Pt2/KW5HKT2uICz9i+36u3dyJw0OVIujf++acss+7Y1SbyLcsp3lCSCX6myce+F0+3ya/FiKebel63/kX7GtcYUppTJ9aD9gfafh50N//Xu/pldKtzb5Rt/79710nF1VozJUMLmGsZP9xxR+WtxL9wYVCXOnPLph1Iqtn6+WEAzZZ7P2hGarMR9ZNVj/V+OZnNznxbR3reWHLzx/Zm5oQF7d+/ymdspSXFu7avD4xPj4pZWtm8QWWXH6ucM+mdfFr4hOTt+w/ev6KktnLf3NzXXr6tmkC1za9ppvcOK8rP67LfOm7+ePOuuai53Jf+P6hoC7vJx0qLikpOXGx4oEPf25/v23kwJ9KTKJLht8Gj73js9OkfP/ztedEF4i7KlrXen4W0qmu8WjGkZKyE0WlaZMWtgtf9ovdw6ulmD+vnSopO1FSPOl2V3QTD9o3rXkqul/36SMSDISci+42t9/tvq2b8Fsr9mLq2tWTnOeyP6moIt6NWbgLa9eunSwpOzJjUWSn9eklZSfOXlcRCYX2FY5UWzXljgia9VWezS79L0+MfTimzCZVe9MNz70auon+8omyEyVlxbNjI2/fsI2yKjunE+4/tX1yzx5f50OIL/YHLfZXYx8c2/u9/ILishMl5Zcs50M39B+tIuV0F9qxCufbCpzQ3v3nxePFxcXFWz7uUMtZ3eTahZLi4vzo+2u1fT+luLi49IrKecB3dZM/L50oKSkpOTpnQFC30ZvpaslZndVlTxuW1Z5q0k087b/b7FvBst1Qvd+gmco3vt2+8aDYKtxIeVg3cRsflf7Dr9HsJQd/mcFedfDxtnq95T0H001Ug03owNs0STcxCf3bbf7bNinbls1vG9MtyFO6ybWLx0tKCmIeCeoyKpX+etXOP7a6SaX6m0sP/Oo47FJdPt/KBxyJeahWhw/T6Lm6uLRS5ytt3eTmLl2ihq75i5Cc8Z26dOlQrbpJJfuPHecKEirVHyqwKe6usi4gGnNh3dP1csEVKauWP1XmUxXd5GxeelLyjkOHd68TdJOz2akJm7NOXiorP3d0d3LijqNlOp3uzMENCVtyT10uLztfvDclfkvBJS8LJnJxAambSB3k2p6H565cfN26X5l1m/esvjd2RrMf5j20Oe8Iv3qZypO2r/jnj9+0WrFu2d6VDX7ba/faXbRj0dfvmipENND7g6e+jH3lzuYRjdvc+9bKo+Lt65Hou+yvW7qsBW/0bdc0onHrO56ZsvmcUMbVuGFhHcdk2j4Wbnhxwn3TLhJTzuu1v59vCQL4K3Nu3BMdv2oT/lXvARs2nORH/bF1TGyvyMm3dVo6b26iEG+ink51k6cyFWL579b/avQ25tL1nO9WD7jty9YNv+739OZtop/k0uw77HWTG7kLVj/aZkpU6NR/DUrdVCr7o2W/aNKcyKHZcsjKrg09wuI2Wkg4b9+05qkJr41Y9c/X8vVHtj784Jr32nHdRJ0P9Wfg5hUj5nUOm9Kl12/LDjsVNWNxrcK1rUmdm8bNil7cM2Jyuw6xE1N5/I7Cs9G0fs+mpZ+WbspklUSq77LrRhYDLBehzpPtvL54aWS3zYetnFFvX6ssKhvHRjfhLc53l8/vPfa5xTf4tvaKfTzIDwvku211/oRc+33Ckn81n9QsaFL7zrETN+iYcVE3MWRvebjBnMn7LE1jWL488o4twguYc9Fdxg2cLx9LzCWftZj8RryeEKLdvo54alfQP/j4TH8ghGi1OyEq5w0H/UejvTR/X9ptSPe40I4a51vH9u32pv83MuKlL7/qf0u9kPBbH/wohV9cdAfnDb+7VXhI/WZdBk9Is3o0LZra1V43uZo5f3jPqHo31WnYYcCY9dZBAH8tGlCr03jr8MezqaMfujUsJLTtgOmz3ry5SvEm05aP6BUV0bj1PW/9fIT+uKSlfP/c1+/rHNWwYdTtT4xea7nuXEyfOLDbzeEhwWHNbn/s0w38QnU16/s37rm1UWhY825Dxm1QrgvMlmHFM0F3Tc2XLVfGvvjca8ie2ju8+2f7lauZlVm+cWXfN8/8s3nDyM5Pzv72nTbN3lHiMVX9tI8LuG+O0GSe9t/Ofu7krsEP8PhA8/YPW0UMS6ACJL0PGTwl9s1eLSIatbz71YWHOQTVekk0NO43pH3nvn8opNcMedYOzs75FUk38c/+s/ea5ULMpBBxKhP9pd3Tn+0R1bhp16dnzX23bfN3Uin9khLzH5kLRvRr1yRc6ufJpwxGGpki9Z/g4OC6devWqVOHBWZU0H9U22v36DZ3/fezIS2a3DVpa/LIjpFRD3y9X/pFarc7IUT1/lP19+ugn6v6I3eEv5YMCeo+2fot7LlNnw3o1CQissuQmXPfuUWMN6lcf3NSN9E43x4e36nWUz/LdxI7P2wZ8vJaSyd2+XxrWDqoVtfJ1vddZXtnvdzntsZ16zZu1//DhBP8PvzCprGPdGgU/Pe/1Ylo9+BH60+zYkXdxJA1+Y7gTqP3XifE8POg2k+9Oizq5bU3ir68o9+rw9tw3UTdfvHUHrUem/DTq90jQ+o16fHiD4f4791SPWEtc5yI0ZwxqnXY82vYiwvV/sAOVek/+ZO7Bz33q8xz9+i2Ea+vk4vR6ida1wVCKtcfhFpJq6r2tfvz1g9aNHvt6+lPdGwU0bTTY5+m8l+jlv+qfDR/j9QlN9TLgX1Vfxyc/1X90eZji1feLoqLWXrgovhwS3dc+3Wwbdzovz4o1g48EeNNSo8WnL6s053cJ+gm5YXb4rYWljOdojQzZZ0UiXIsIz4tTw49ObEnacPBM9BNNJqpksmnktv8tNEqoJaYc/cubPHzhl9Lzx86tXPIj9NfKJCfB48cjI1cHL/w1Lnsks1PLYppknqEn/LUSpf09ZKCOQOC7HSTqL4fLdmZm506rX+TBkOWSNF7ez/vGBoaWr9unaDgeqHS0uxtacYSw86P2of1Grl6X152WswTUZHP/WoJ79j/WcewV4XTuuxGxjtTB87/g5CikeGxS67IiTfW/ta26aKv4kry8o7/8nJMm8EHWZTzjZQ1nerP+2z1qfyD+dMGf9NWGaejlW7RNcz6kpWreoT89JN0x2vISL4zdN6YuFP52Ue+HfDVbUOzL8slqz7/EOOO9T2aLIxOPlOYW7xs2IzWAw+cl/Jr2XdVN9Gwb1rz1NjnFxx885aEX2f/+NjsAx83lnUTLT7Un2bffbqo5HD20e8GTmv+wE6V+FJLTV1f25rUuUH085Pzs/NOr/vou9ZNf0u+So1Y8Xz8q7bPHzxviS65NPvOscOW/WUQdBON+sr+2D8na7XvgdExUfUmCv+tXG05+ZlvlOx6tv68mfLHAHhlbyQ+O6nP6BNOvFC5ca7wQlH+gRERU//z84Wi/AtF+eXlkn0t/mT/xl4Nfvhq07niojPpU5Z07bhhl1SsRTe5cSa6x6S+E07zBzVKz1Y3IUcmz2nywE754Wxnco+wXxKl2wCt9tXiGRh8fKY/EI12Pzml/cSoehOa3zS2aQjrjVNH0vOhZv/Rai+i8ftyYzuqnm/5b8PZlfT/RgY3f2TC2gO5+1aPvDMk4oV4dh7Y8b/Wdbq/u2pPbtbG6P6NQ5/6WRidonIfb9z+Qcvw+8avO3AoZ8sPQ9uEPLaQ3+hRjcpON7me/FrjoO7v/bY390Di2MdbNaiKbtKi70dLd+ZK16nQAT+y39r1ta82afbIhNU7svN2Lh3eseGTS+Vo9QOfdwq/b8KmvKNFmalfDGrdWR63Z8wY1bZp/8nJmYdzty18oUPE4MWiAm+nCxBX7Vt0kxuZk+8M7zHxgGO513xw7O0hXV5fvjt7f9zHj94SqegmGn5ePVuYn5+/+IVGzYevzJeWE2WW8yfxtP/29gum9Kjz4LfyQ9iuj9tGDIuTznv0+bl5n//F7sjN3jx7cIu6D37LJmHTqJfUizXuN1gPz5vQNeTFNfwlk7PdXslH/fHT/sO0EvZKg8eemKVFr7+xb2w31n/2/fbxgHbNW7ybajabS0qObh/VPurRyev252Zt+enFzpFPxp6maovL/UejvXaPbhM5cN7eHeN6N+wxKj5zxfCoyDel+0mtdpfaQeW5V+P3pemnhj9yM9vrJtdT3opq0OvDNfvzMpMmPtkuUtRNKtffxAd+pXep/NU437qqmzg+39rrJtcTXgyLuP/zVb9n5e6IHXZL3cdj2X0v2ffJrcF9Pk/NPVJ4IGXio81uG8VeR1p0kxsHxt8e3HnsPul8Zfh5UK1H5i9+rsWIJTH39IpZ9FYDWTfRsk91k4Z3vvPT7zlZaTMei/zHvbOPq0CxJO0TMR74vHPoMyukN3oa/YEdqNJ/tHQTzX6icV2gBVSuP1jqJK2p29fsz2TrBy3C2wycsi4z70DCx30imr2SKF2XtfzX4KP5e3RTvTTta/gj6SZq538Nf7T52OBVNk/Hv9fn5shOT362TFRPrpXEZ2Usy5zbv2HTx5ZkLMvMWJZ5cJ3OOd1E1j6sdJOy/C1x24vkPeezNq7de0Kn05Ud35eSvDW75OyZwj2p67YcOlc9sokuYONNLueuaBC3T7wxI+T4qIWzR8pvxfQ/J029dx8bf3Dui+XRw2QN5a9FCVN77RZuYJXeYvf3L+kFmU28yQNz5ee3tP82vfm9dHrQXxeO5ufnp37cNejhGdnS/VZhqfT7LPzijuChv8ji8N5P2zd+cwMvZPO7zVt8sJVvOr+yY323ponswIIJs5s+m83uHU1JcW0U3UQrnT5nBk2gz9XB45o0nP3WwvPs2CNT5nI7ZE/KnQ3FeVJU4kHyx89qPaJQdvlw+n11f02SNrTsu6qbaNinusnA+Zfjn57Zs8P3s4rz363L400EfAIf6k/fHfJ9596Uu+r+urbS94ZCCZbVrUmd6/6ylt1bGw79p9708XvpTluekatTrXWTF6zH6WjUVy7H/jlZq32vn78kyRlM1LhQlH9FCtIwrH5mYlS98U1rT75/4gmVVxXHDrx487gmdSZE1Zs3Q2lVSx1t1yoaZyHwJxvj27ZM2GJXpKKbGLI+m9Pqrs3ZomqippuQwq0PBv2wQPrhZX8a0/LfuWzWE6321eIZGHx8rD8o/cPS7oaLRy8U5ReN7zJ2yDdnpQ558ax0PpSyqvQfrfaiuona78sr7ajUy5m/6f+NrD10lXweWDPsphYjpQ9WFUzs8rcnV8jdf/dHreu/ut5iTUU3yf28fQjPcmjS7bWfj7PkV9FN8sZ24PZNiS/VrYpu8uC3cpDMvjEdwlUEfZIx6hZFdyAb345s/d80u9913oSuEfwSd/jLO+u/FC/4b68LCDuJM/YV3eT6gc97hPeckml93rCyJm2cnnlv0CMLmNZz/dfn6iv+O/RTM57Z0/6r2C+c1jP4vjnSeS9zTMewYXHsZ0Sfn/vNlue42TemQ31Z83BUL4f3G6di7gkauKjS08NSf/y0/9gMtxE3zeZTYv/55flwRTdJndA98q31bGSPPueLng1eWmMZcutC/9For92j23T8LIuQHaPaDFnyBylf+GjQM9LJRavdpc6u8txr9YsQf790h4qfGv7IZux1k0MTu/H7W1PSaw1F3aRy/U184Lfy3npD43zrqm7i+Hxrr5tYObH9g5sj3qTxR4SQDa83aDZio935UNFNru/7pHPwPycckM9XVDe559tjKwe3veXWXl8eS3ypNo83EUoQ7FPdpPcM+QMVez5uU/u53xzex5oZRilQpGBKj7pDlqgMw7btDyr9R0s30ewnGtcFWqvK9QeBB111YF+tP1PdpP4L8rtDQ+Lw0Ns+3kfNaPovFmfho/l7pNndUC+H9rlLFn8k3UTt/O/QH5XfO7etsnL16IaYEX1bNun81GfLDkqxJ1UZp6Otm5QX70lJzzvLdROd7nLJnpT4xHVJ8Ylb8krlcBTviycBq5vs2T4napN1bKluZ7+5q1bIZ6fy2aumDsmVzmX6rKfnLp4tB/r/sWD11Oedmk1WVTfh8+dZxa2px0nuHtUmgk+VdUSafI8PR9j0TjPndZOzR6YNmtO10SQqedQdH6mMc9k3Mrr1m8qTrjDPhVY6fc7s/3te/rllT09p/2Yhf1lnlf/ItodqL1/F/VSJtyf7RkZH0sds6WVy3fFNlPxa9l3VTTTsU93k4ZiyPzZte+/jnGKS92ZtRTfR4EP9GXRAfmSj9Vq60r2TH9JxBLKGRYgu48fdW6WbWVueIct++ZPPZsLiTW6IFz6N+spnM/vnZCv7QrurnP5okll36kJR/rnMhPUPNli4UJb9eF7D5tendv33nl3Z54vyL1/ifYLvt11Ree4lGvzJ1WMTOk1s2Wres8MSv5pfeESZ45XqJkHjo+pNaFb7y/c2Cq90pbLs400Iufxtz3ED5l4h5Oy0TpNe/U32Uqt9HfO0rZC/8fGh/qDV7hSxit4qkVfpP5rtpfH7smtBluDefq5RiGoyjRtX7qHJ6S3fz0uVbnJ3vt88hE/VWjS1R61BSy3nVRXdZOf7zWv9/f9uYkvtf/w/q/wquomVfXfNbyJep85umjikR+vIsFAaTxkSxOO0r24d3SU0rE2vAS+8O+G7DYXK73r3qDZBIXLIpRR/+cwKS31V4jWIi/apbhJcV3KlyRsbK1JNCMn6vFPI8ES5xXaM4uN0HPqpeX+pomu41X8V+6R4Rq/gvnNPEZI9sUvYUFk2ke6b6RO1tND2GrJEuq45qpfD+w2qmzyxsEq6Cb8v8q/+w+cxYTDZpjLLidR/EuTI5N9H3aboJgmj2tYLDQsPC6M/DBpnLPZzF/qPRnupPUdJoyWobqLW7nI/sB8nrtU/6QEqfmr4w9AQe93E6v7WZn6TyvU353UTtfOtq7qJ4/Otim5Smjp2QOdmoXXoGbr232vxcUBX0z9se1Od5t0fGvrW59+uL1DOh1Q3+ds/pKxhwzfw8xXVTe6YXqJLnTr8w5VHyG/P1VJ0Ew37VDcZsEj+vdPryIBFju9jGcZ0IyHHY+4OeeQn5S2xo/7ggm6i2U80rgusuzl43nH2/OPAvlp/prqJopUTcmbbTws2Sffnmv6r89H8PbqpXtr21f3RPP879Efl905I9pR/hipLxKvs7Te1oix/lmyKfqZ9/Wd+NhLiGd3ENt6kNCdtw47Cc2W6K5dOZm5O3nH0svc1E1pioOomN1YkTe233/pSf2Jdi4VpbCgAIcUf/Dh7FBuXcWnrnd/Gx8tPqqfGxH47hg9AVzqI2l+P6iZb3o+Sw1XUirZKM6W/8eVt/bekZ56nL29/Xd21KrqJNL+JPmVNx7AVccqUEVbP4c7pJm1fPiiENrC4Bmm+CTX7ldBN1OxT3eShGVw6zx0h6yaafLSeq63oVmXD6rnOYsjC02Qy5af3D1n2y18G5QlC5Xly38hotfrKBp1/TnY4foEQUvxps6kf28Y4lc27e+zzSyrWS5Tq2T/3avKnh1wr3xu3e+bHq5+6bWLL+zKYzkl1k3s378s/s2jQlHYv5Fn/iFXG6RBCTs9Y0LTvjlOH0vuF/rxaCV7Qal8tnoHBx2f6g8N2d1E3Ue//Gr8vr7Sj0t+d+Wulm1gOsNI1nNNNGgxbfNiynFJGalKb9uN0rOy7XzcxpI5oGvno1NSswzSIctWI1lw3ob/rE7tWL5g2+o1H2jUIu38OC8rcPapN5PBlbIiL9O9p0X87XcBl+1Q36Ttld37mgiGNm764xua8YeGurGV91lFLN9H2U/X+klr0tP929mmhJ2PuCe43+8ShL+4IG/qLct7Ten52xN/h/cbx6b2DBi9WbgcUfE7/pf6o6CYut68j/z3En4/NYZUVN02mzM+6NHglnn6K2Gg0bhvV9mZ5fpMER/3c+f5DNOqr+Ryl1e6S7/bPvQ75qz1navgj9wPXdJPK9bfK6CaWbloJ3cTB+dZONzGkvBIe+sDklIOH6Bl65SvNuG5Cz4fHM1bN++LD4fe3Cqrzr5lsdjaqm9w9YefhA/MG1A9/7jflzpXqJj2iixW/Vw2VdRNN+5XUTT7cbi6d91DIg9/KQfmO+4N9/yFa8SaO+onadYHWtHL9QWFk+atlX60/W+smFhsa/mvx0fw9uqleWva1/HGom2hyVj0vXb94jF+uC87w6RkZKl3B2q9f6d2yVZ83lh82u183sZvfZN9JnY7Oc7L3pCyVlBdsW/17IZ0t1vtLoOomZyct+/q1o1azlBgL4xqs2CHHX+h29pv320r2OHh6w63fJ29mneHPvY/OXf6DoghLaTcunz5/zcoSy1pl3cTROJ3cyd1Dnl7OZmtixWn+S2fufHaRHAVoTo1vp+gm+eNn8fE14jgdrXT6nMnmhTWVfN5q/OAFyisrh+N05txpOy9s/vhZzf+dK+vn13SF2eXs/ljL/oW5P0Y+tJvFS5vWr7711g1SuByr8CWn7WvpJpp8qD/iOJ16vyaJzXzjzzPn9WKC3ALOp2s811nG6ZjN5p3JPRuvloYnu1pf2R3752St9tUYvyDbIeZD/wmOmZKlbCrmVzw69rE54gOOTQabzaMfN7b5DrEmf9P16+VXlXCSoq0P1l68TOpxyjgdYj689aHgmRP3i8E36roJOZUxMOiniR9/1+LZbH5612pfrf4ZGHx8pj9otrvUY1T0QSndvv8Qrfai43Qs8VyWfuiVdrQUV/Gahm7icJzOka+62c4Lm/t5+388+6ssYV47cyjruCgN2OsmuZ+39+Q4nROz+gQNiJXPDObU/zRVdBPTdV35VeX1adHXvYKeWCj9JvMmdK07LE7xv/Rw9gnRfztdwGX7yjgdYj487e66XT49oGjRrIXsruP0OXOQXAFT4ivhyrtHh35uftf2O8Ry+3vafzv7Urmn5twf/NAno/s0GPoL1zVovcQ47dCX4qXLmKN6Obzf2DmyVfiIZJVLYcVdn+ag/qiM03G5fR35r6KbOGHfbDYXTLs7ZOBP5UajyXRG+Y613H/23zCxABM21xjrP2z4jVTxkq97Bw9ZdElKuR7/SiPWf0pKUh31c+f7Dx0voPZ70XqOkjirtbvk7NHptvEmmnyk/Cp+avgjZScq8SZ5E7pqjtOpXH+rmm5ybtY9te6TVQJT0vD6LT/cKftO48FdPd/a6SbHv7mz1kM/KefDlDfCFd3EdF1Xxs+HhV92r9X/B+l8qIzTIeZDX/T4R9uP5MnvtXQTTfu243Ruej5O/K3anfcIw9j+07TYQXX7zlImQ3HcH+z7Dzk/94Gg/t+xOVxM699o3Hb0bomnVj/Rui7QgyrRH+zq5cg+UenPWrqJhv9afDR/j26ql5Z9LX8cngc0Oavxsfw6rNbM5XnxX754V1TLPm/MWH9MeVaW403WPK31HeKywtXHj2+Rs53fKs4Lq7siLSfovLAn6SoVQuj3dNKzTl4ql76nk/B7UZlOd7lwW/z6nYWll8vLL57KSU9MkiY98b5sErDxJqfGxEYP3H+2mH6QuPyc9PhrLk3tMG/hp8fO5p8/Mj1hVoe0o/I57tK2u+Z+N/L4tRuGS79t+fHmBeuFx1hycfng8KCQ28cLz5PXL5+iH0uk88J2G72Nrp4qo7IFvT/g71WcGKdj3Plxh7BeI9co88I+v8oyL6zx95EtGz3zq6JBW/Vbmw3jpte+aN1344aD5w9vyxwz4Jv2im4izg/61RPTb1HmN9FKt+gahOSMiYm8ayt7T2jMSL4rdN6Y1cq8sM/lCPPC3ogbMqHzS5mH6fdEy0qliUDpPI4N5n0Wd6rw0PFVr89q8cBONtZayz7J23J/3Vkf/Hzy8MH8qX2ndHm7SNCLnLevpZto8qH+NFLvSrEAACAASURBVF8wZtHxwzn288Je+3XgpMg6s6YK7S5xdyVd47nOXTy1vjur1b42/cZ2s2zfc7W/nydP92LZufHliT3HqQRgnU3LiJ60fy+/W5ePuDCj27gHRxfl5l8oKtRJ51RN/leXLLu51YoFm0qPHTu/c/ridk0TtkjXe66bEKLf9ubXLR7eLc7XqzZOhxCiW3T/pJahk15aaRlGrNW+Wv3TUmfVNd/no/Ed4mrqD5rtLtHV0k3s+480z7Ta+URLN1FtPUuii+1oOdB6rTRtzuTJi3bZ9n/rTGxLQzcx7hjZpk73d39T5oV9eqUSME0n4l/+xP9F/ntJzjH6ncvT5VSGoPMUBnd/b9WeQ3k7lg5vF3Tv7BJmX+M7xOK8sJ8/GlXPen4T5/2n17VmfUYu3cnmL6//2A/SYD59yuuREf0+W5t5OPf35SOfaNdM0U3+WPpkvTbPztmUdeTYod+/eaJps/+mSb9rOt9eeK8PV+87fGjnijdub/Dgt8otO62GnS7gsn2umxBybfNbrRs88p085p+aV7mOG7e836pB38n7ym7ocuc+e0tDRTdx6Gf+1O7BPT9JzcrPz5enKWNt4Gn/7e2zcku/eyAsLCz8aYtsIt2HRN0zMjYjN2fz7MEtreaF1eLv4H5Dv3t0uwZDVogaFy3a7/tPWmZhYc6W6YOiWryz8QYVP07Nvj/40e8vms1mw5W0t29r+Nj8Y0aqp5jozrNL2X3gAUkmkdiz/jNp7+XrV3Lm8P5TUnLUUT93vv8QjX6o9Ryl2e6Ss1dXPlWvxcvLc4vp/eoZej7R/H1J+VX81PCHEI3vEIvzwk4YdGsjcX6TyvW3qukmJHdy19rtX12+K+fA2s9612vyRoryzOfi+VYCZKeb6JNfbhDSe3TCgUM5W5e8279VhKKb/BH7+P81HxKTerDoaN7Waf3DI0ZslM6HXDch5Fraa82C7mfnQy3dRNM+1U0a93z3p+052WkzHmtiPS+synlP1k3C77r//kY9v+FzGTjuD/b9h5C8qXfV7/rmyj25mevG92vU8j+pjKdWP9G6LlCcLvcHlXo5sk9U+rOWbqLhvxYfzd+jm+qlZV/LH4fnAU3Oanykfm7/z55PevZ+/Zt1R5X4RpZDFkQy3uwW3OnD3xZmZizLyk3hKsm1gnFPhAWFdHpltzJTrKiblOxOjBOXjZmlOp2uvLRg16b1CfHxicnp+4/JH9E5X3xwa0rSmjVrEtalZuSdqp5ok8Adp2M+nLOqx/fTGsyd2mDu16/Kn8e5unnnyjt+nN78pwUDt+QcUt6IEXIlLuXbhnOnhn+/8NNtvzb7OUOY65WUrxtxW0Szh+cKHz6l49+slzaS0uqqbkKILmvB633bNYlo1KqHzXeICTnxw4DIVs/8WCBoCPZdmKWcLpjUP6Z9g0kd/rliwaLk3opuQgj9Hm3PyEm3tls8Kybe5jvE9umirkHyt9xfe8aEfUy4vp7zXRz9DnHE132fsvkOMdFn73mt29Som8ZG1h5775csauRGzvzf+reaHBX21b+eSElWvsembd9QtDRhYNsvWzeMfnDY9j2CKkOI8/a1dBNCNPhQfwZv+eWt+fJ3iA+J7yf/2vjG9NZNF/4gtLsE25V0Dd2EEPfwJAmrompT7PJ//TKUyUm02l2rA0np17NfC5r+fvI1JQKEJpqvnpvRZ1y/r4QHOtnG9ZUDxkX+c7P1d0PpvkspGwa2nNS09lg+z44Wf2K4FP/OTz0jJzatM6mDxneIyel9Q0O/eifZMlBIQzchF+cvbFJv+a/Cc6x2+6r3T7lmWn98n4+v9QeN350EWEs3Ues/RKO9NH9fWk0opbvWjlqmrix5Ijiox5Q8rf1iuoZuQoju4LyX724VFlKvaedBNt8hJvqs+U93irjp/9WqVatWJ/l7l38c/PbFO5vXvSmkUYdHP4o/rsRhrRl2E82lLH1i5DlBCf0O8S1hwfXbPPzl9NebW+kmLvhPr2tPTln4yp03hzdq9a8RywqVK+fp5DGPdmoWHt68x7NzYj+6XdFNiOHIqncf7NgkNDgkvPntAz6xfIf4j6zvXu3TpmFoxM3dBn2aeELxX2Jlp5sQ4qJ9QTch5PRPj4dFvZrMg89UruOEnE4c0S0sqE6dsI5vjn6xlaKbEOLIz4spo+9vHR4cFGSZz8Ub/mvpJuTC/IfrhD69XDjvSe01ddnbd0vfIX5loeW7pI7qpX6/YTyb8l73hndOYJ/6EDq1//efmyNCGzRu2VXqn5I4cmr2A/UeXXCBDcY5/uPAhi1fW3+F9lE6HezFtSPaN456ZM5hvZ59ipiyUOs/JSUl7uo/6na0nqOk56UnVdud+qrP/v757s1CpQ8gd2ff+9b6fUnNrNbPNfpP4vBQ8X74vjnKew76HeKOTcIbd3j865lvtxF1E637W8f9rYq6Cfnr8OIR97QOD6nf/J9Dp++wuc90/nwr8bHTTQg5te7jB26NCA5u2HlIzE//a6foJsRQtPKte28Ju+lvfw9u2O6hUWrfISanvn+4TuMX1/0hfYdYdZyOpn2qmzw+efHrPaTvEL/wQ57l1RFRe36RdZNnGgQF9ZhSIFWG/eOwP6j0H/JX/rL/PtC+aUTjNj1fmLnT8pJXo59oXhdo8S6ef9TO5w7tq/Rnq/lNBA7qvzut65Hm75FZrHK9tO1rtJf2+V+bMyEqfEQkwrr+huVu3JKsSCRrE9/r0SpMuj6+ME1J3HrtyLRXb2nQ9L7/ZavpJtUQMFLFIgN1nI6lPZ1bM1+7prtgMJ88GNs4OV+5L3TuUI/lupo1e1DrhrfcH3PAY0XUaMPSc/VB4Z1DjaZBiCHrm9huIeOatd0gfe6DnJ+3sHnQuNvuSNogf09P4GMqGtlo3MMx1rcewn7vrx4aO+vmJzPFAUXubl//5uN6iwRqfV2plxY108a3I+v0nslHoWvl89V0f/ffbVzN1y+eKtUZ6LtH5ydid1vpbjCUM+72+k8vF6NBpPvmpdZvA50pyO5+4/SqN2+PjOw9OvUCe30iGPGv/mMymdincPh361gUiUUBIcRoNLLxOIQQk8lK0qPvw6W9elE0YTTs+g/VTapnqWy7V4+3hLje35zUTaqrQtVUrqSbxLrwe/dRjK70h2pCXalivV2vis4Ddv5Uqla2B1kkEkUZcZwixptUUcSohsOhm1Ap/oI0nKf40pHPfokZetjxZNS2/cWz23+dyvg51f6lvmcLrSHW6XM1/55ODalzRdU0Xrt6ovgq+wUYL5cXn/lLXUTMSusTvHCh9We+K7Lt0f1np3Wa8O9lVj9dT7Sv3/KpJPxAra+z9dLCljWha92H5/tQ/9dyVCPd3/3XqJarydcvn6TjForzN3/Ss/7D8+0GKbpqz/v5syd2qT/YSjaR4g74d1Vc9MjqfuNcxpoNBeV2mgk16Tv9x2w2G6VFq6ZcMeErTBmxEUHslRQtg0K6Sv+pXt2ksu0u1Mmrq671Nx994PcqMfvCqG7Cv6djv9s+xYcxOtsf7Cvl2ynerBfVTSo6D1j54xZ0jlUS+73QTZzFfuaMMo7A2SO8k++vfQPocJ6pjX/4btD2I3547+QdTAFXiieeqwMOknqFLs9fGDX4oCUwUz2XF1OzN/2r7tKfxbeuRPp+UzXpYj7Hx8NNUdPqe+m7/qFPLvWhaCsX29ff/XexuprZd3zQgo4wCG7QvMfQuZlODInVtFRNO7Indqs/eLH1ec+Z++Yqulv9/YdO2SpFhYjfuGG1MksLW7dRQ6TJSfQsA1vnIMR4E55Y0YpK/4FuUhG0SuyX+5szD/wza9wy7vGoWh3/Pc2m3g4oO4PRweHY5dsEvHD+VwFgr4w4ToFuogJRNclXdRNVZ5EIAiAAAiAAAiAAAiDgQwSYGmIwyBOSMQWEKSlsnY+4MZvNJpOJCSU83oQNz2GbBoNBPNBsVg2vcaHu1aebuOCkn2bFA79bGg4Y3YIRRkQCjlUS+73QTUR6jtahmziig30gAAIgAAIgAAIgAAIOCbAv3bAsLFSE6SBszI5qLInl4zh6OviUfjfHYOA6C5/6xGGxFe+EblIxoyrkwDN/FeDRQwGwigBxuCoBe2XEcQp0E1WMKonQTVSgIAkEQAAEQAAEQAAEQMA5AmxaE5uhOnyeVx6BYj+VibiLqScsIMW5YivOBd2kYkZVyMEe+y/0u60KNmruoaBXc9vewzV3rJLY74Vu4uEGgXkQAAEQAAEQAAEQAIEaTICPu2FDdfRS5Aid2l9a+HdwWAQKk1H4FCdMamE5+Rgft7OEbuJ2pDYG+cM/VipHwIYnNkHA+wSgm3ifOUoEARAAARAAARAAARCoKQTYyBo2CwlTQNg6F0cYCHGyWL7O81d9EhMHuKGbOIDjxl2Vkwxq+FFu5A9TIFAVAtBNqkIPx4IACIAACIAACIAACICAFQGTyWQ0GrnSwfQRtikGlXBxhB/MVBI+kIdN/srt8GxuX4Fu4nakMAgCIBBgBKCbBFiDojogAAIgAAIgAAIgAALVSYCJI3w8jqibsHW+i4Wi8KE6bC/f9FodoJt4DTUKAgEQ8FMCfqybnD9/Pjc3V6fTeRf9uXmPNIrq0O+1H7P+9G7BKA0EQAAEQAAEQAAEQMAvCPAP5fBJXnnYCB96w3fxqWGrq2rQTaqLPMoFARDwFwL+qptcuHAhPz//4sWL+fn5V69e9SJuY9nx3F0rRnQK6Tv3pBeLRVEgAAIgAAIgAAIgAAL+Q4APuhHjTQghNkN1xI8TV1floJtUF3mUCwIg4C8E/FI3EeWSq1evel06IYQkvxrWfuxBf2ll+AkCIAACIAACIAACIOBVAnz6EnFeWPYVYSapeNUbh4VBN3GIBztBAARAgFjrJuXnj+xNTYiLW7//lE5ZyksLd21enxgfn5SyNbP4AksuKy3YvWl9Qnx84oYt+4+ev6Jk9sLfS5cu2Qgl1SCdXFs2KKj3zOPoQCAAAiAAAiAAAiAAAiCgToDPZqLX6/k4Hf4FYjFF/XhvpUI38RZplAMCIOCvBETd5GxeelLyjkOHd68TdJOz2akJm7NOXiorP3d0d3LijqNlOp3u9P7kxC3ZJy+VlZ07uidlTVruOS8IJrSIK1eu5Obm2g/MuXr1am5urvem0Toxq0/QE0v+8NdWh98gAAIgAAIgAAIgAAJeIMClE66S2Kd4wQ3HRUA3ccwHe0EABEBA1E1KjxacvqzTndwn6CblhdvithaWM1mkNDNlHY1EOXNwQ+LuElkqKTu8JW7L4cteEk50utzcXNVm00pXzVzVxD/ihoZ3/WTXFVNVDeF4EAABEAABEAABEACBQCZgM06HbRoMBt+pM3QT32kLeAICIOCbBETdRJY+rHSTsvwtcduL5D3nszau3XtCpzt9YL1FN7l8eEv8jiPeG6mjpY9opXuI+7HFT7UIrhNSPzS019RCD5UBsyAAAiAAAiAAAiAAAn5OQPyADvuGjvdCpJ1DB93EOU7IBQIgUHMJOKeblBfvSUnPO6voJuXFOxMT0rNOXCi7fPbI7g2J24u8F24ix5vkWi+EEK/qJtc3vtG89bDvt2cfzs8vvnij5vYf1BwEQAAEQAAEQAAEQECdAB+S41PRJfa+QjexZ4IUEAABEBAJOKeb2MSb6HQXiw+mJycmJG3ctDEp5eBp70Wb+Mg4neMzewcNXOrNzx+LjYZ1EAABEAABEAABEAABnydgNpsNBoOvRZfYY4NuYs8EKSAAAiAgEqhIN7Gb32TfSVlEoX8u5G9Zv+OYF4NNdD6im1yJHRB075zTIkmsgwAIgAAIgAAIgAAIgID/EYBu4n9tBo9BAAS8S8BKN7kiLSfovLAn6SqVRuj3dNKzTl4ql76nk/B7Ef2eDlsuFW5fl553Xtn00l+t8Tha6Z7huW54aMfxWZ6xDasgAAIgAAIgAAIgAAIg4C0C0E28RRrlgAAI+CsBUTcp2Z0YJy4bM0t1Ol15acGuTesT4uMTk9P3H7vA1ZHLxbvWJe/36hAdqexc7cVbjWC+mjv1X8F3TMN8sN4ijnJAAARAAARAAARAAAQ8RAC6iYfAwiwIgEDAEBB1Ey6J+M2Kd2NMWKOfm9e/bnCdyLs+WHs+YHoBKgICIAACIAACIAACIFBTCUA3qaktj3qDAAg4SwC6ibOklHzGshNHz5TrlU38BQEQAAEQAAEQAAEQAAE/JgDdxI8bD66DAAh4hQB0E69gRiEgAAIgAAIgAAIgAAIg4JMEoJv4ZLPAKRAAAR8iAN3EhxoDroAACIAACIAACIAACICAlwlAN/EycBQHAiDgdwSgm/hdk8FhEAABEAABEAABEAABEHAbAegmbkMJQyAAAgFKALpJgDYsqgUCIAACIAACIAACIAACThCAbuIEJGQBARCo0QSgm9To5kflQQAEQAAEQAAEQAAEajgB6CY1vAOg+iAAAhUSgG5SISJkAAEQAAEQAAEQAAEQAIGAJQDdJGCbFhUDARBwEwHoJm4CCTMgAAIgAAIgAAIgAAIg4IcEoJv4YaPBZRAAAa8SgG7iVdwoDARAAARAAARAAARAAAR8igB0E59qDjgDAiDggwSgm/hgo8AlEAABEAABEAABEAABEPASAegmXgKNYkAABPyWAHQTv206OA4CIAACIAACIAACIAACVSYA3aTKCGEABEAgwAlANwnwBkb1QAAEQAAEQAAEQAAEQMABAegmDuBgFwiAAAgQQqx1k/LzR/amJsTFrd9/SscXtcTy0sJdm9cnxscnpWzNLL7A83p5JTc3F60IAiAAAiAAAiAAAiAAAiBQaQLQTSqNDgeCAAjUEAKibnI2Lz0pecehw7vXCbqJemJ2asLmrJOXysrPHd2dnLjjaJmXBRO5OOgmNaSbopogAAIgAAIgAAIgAAIeIgDdxENgYRYEQCBgCIi6SenRgtOXdbqT+0TdRC2xvHBb3NbCciZelGamrBPDU7ypoEA3CZiOiIqAAAiAAAiAAAiAAAhUCwHoJtWCHYWCAAj4EQFRN5EVD2vdRC2xLH9L3PYiec/5rI1r957wplpiKQu6iR91NbgKAiAAAiAAAiAAAiDggwSgm/hgo8AlEAABnyJQBd2kvHhPSnreWegmPtWgcAYEQAAEQAAEQAAEQAAEXCAA3cQFWMgKAiBQIwlUQTdBvEmN7DGoNAiAAAiAAAiAAAiAQCARgG4SSK2JuoAACHiCQKV0E7v5TfadtIyd8eYaxul4ok/AJgiAAAiAAAiAAAiAQM0hAN2k5rQ1agoCIFA5Ala6yRVpOUHnhT1JVyUJRC3xbHZqQnrWyUvl0vd0En4vwvd0KocfR4EACIAACIAACIAACIBAtRKAblKt+FE4CICAHxAQdZOS3Ylx4rIxs1SnU03UlZcW7Nq0PiE+PjE5ff+xC96MMRHLQryJH3QxuAgCIAACIAACIAACIODDBKCb+HDjwDUQAAGfICDqJqIi4R/r0E18ohPBCRAAARAAARAAARAAAb8lAN3Eb5sOjoMACHiJAHQTL4FGMSAAAiAAAiAAAiAAAiDggwSgm/hgo8AlEAABnyIA3cSnmgPOgAAIgAAIgAAIgAAIgIBXCUA38SpuFAYCIOCHBKCb+GGjwWUQAAEQAAEQAAEQAAEQcBMB6CZuAgkzIAACAUsAuknANi0qBgIgAAIgAAIgAAIgAAIVEoBuUiEiZAABEKjhBKCb1PAOgOqDAAiAAAiAAAiAAAjUaALQTWp086PyIAACThCAbuIEJGQBARAAARAAARAAARAAgQAlAN0kQBsW1QIBEHAbAegmbkMJQyAAAiAAAiAAAiAAAiDgdwSgm/hdk8FhEAABLxOAbuJl4CgOBEAABEAABEAABEAABHyIAHQTH2oMuAICIOCTBKCb+GSzVNkps9lskpYqW4IBEAABEAABEAABEACBQCYA3SSQWxd1AwEQcAcB6CbuoOgzNphcYjAY9NJiMBh8xjU4AgIgAAIgAAIgAAIg4IsEoJv4YqvAJxAAAV8iAN3El1qjCr6YzWYulzDRRK/Xm0ymKpjEoSAAAiAAAiAAAiAAAoFPALpJ4LcxaggCIFA1AtBNqsavWo82KwvzgsklRqPRbDYbjUa9Xm82m6vVQRQOAiAAAiAAAiAAAiDg6wSgm/h6C8E/EACB6iZgrZuUnz+yNzUhLm79/lM6vjifyA/x1kpubm51A6ye8s1mMw8q4XElokrCYk+qxzmUCgIgAAIgAAIgAAIg4D8EoJv4T1vBUxAAgeohIOomZ/PSk5J3HDq8e52gmzif6C2xRCinZuomXDQxSgsTUETRhBCi1+sxuUn1/KRQKgiAAAiAAAiAAAj4FQHoJn7VXHAWBECgGgiIuknp0YLTl3W6k/tE3cT5REHP8NZqDdFN+Lgbo9FICDGZTHq9nq0TQlhoCXSTavj1oEgQAAEQAAEQAAEQ8H8C0E38vw1RAxAAAc8SEHUTWe2w1k1cTvSWZkLLCXjdhEkkfEiOqJvwOV/tdRMWkIJ4E8/+dGAdBEAABEAABEAABAKCAHSTgGhGVAIEQMCDBKCbeBBu1U3zT+SYTCabiBJunKkqfJMQAt1EpIF1EAABEAABEAABEAABBwSgmziAg10gAAIgQAiBbuIr3YANxjEYDDyQhA/JYSns4zk27tqM2eF77cUUvgsrIAACIAACIAACIAACIMAJQDfhKLACAiAAAqoEoJuoYvF2oup4HK6bsI8KMynEZvQNS7QPRYFu4u0mRHkgAAIgAAIgAAIg4J8EoJv4Z7vBaxAAAe8RsNJNrkjLCTov7Em6Kk1V4nyiN2c2YWUFzPwmXP7g38rhMSZsF/vYMFvnM8KKwSYsXIULKOxTO3zTex0KJYEACIAACIAACIAACPgVAegmftVccBYEQKAaCIi6ScnuxDhx2ZhZqtM5n+h92SRw5oUVw0N47AmfqUSv17OuwVUVJohwGUXUVqqhE6FIEAABEAABEAABEAABvyUA3cRvmw6OgwAIeImAqJtUg/BRxSIDL96ENTvTQZg4YhMzwr+ewzUUlplNjGKT2UudCMWAAAiAAAiAAAiAAAj4LQHoJn7bdHAcBEDASwSgm3gJtONimBrCZ4RlE5rwTRZ4wizY6CaQSxyDxV4QAAEQAAEQAAEQAAHHBKCbOOaDvSAAAiAA3cQn+gAbm8PnfBU3+bAdk8nE9BSeDdElPtF4cAIEQAAEQAAEQAAE/JkAdBN/bj34DgIg4A0C0E28QZl/Y9hoNIpRJCyQxGg08kE3fGyOXq/n+oiD7+l4w3uUAQIgAAIgAAIgAAIgELgEoJsEbtuiZiAAAu4hAN3EPRwdWOEBI3z2VvZBHDGdx5KwXUxG4boJk1fM0uKgIOwCARAAARAAARAAARAAAVcJQDdxlRjygwAI1DQC0E082+I2gSRcKzGbzXydxZvwnGwGE/bhYc86B+sgAAIgAAIgAAIgAAI1ngB0kxrfBQAABECgAgLQTSoA5NJuk8nEVA+DwcBG3DBxhEWRMFN8zlcmnYj2zWYzRBMRCNZBAARAAARAAARAAAQ8TQC6iacJwz4IgIC/E4Bu4mwLsjlKbGYn4QfbR4uIg3EsuknOijEzU0/r9ZYUboIQci5t5piZaefEJO+vUyfGjBmzIsc7ReescH9RDm26ANmhHe/gQSkgAAIgAAIgAAIg4GEC0E08DBjmQQAE/J4AdJOKm1AtciRnOdUWpEUSGHgUCZuLhE1lYrNOS8pZMSZm42m9Xl1/ceGRvmK3lRyyDiJ7W5EsQ3N7SzKRPFTVJqx9dtkhVZsij4ooyHk17OSsmLkix17dOielK8XgLwiAAAiAgK8TYG9E8HE6X28n+Od5AtBNPM8YJYAACPg3AegmjtpPHGXDI0qo9jFmzLJMeZpXc/bymWnnTNJCCOGzlvAJSvjIHZoleznTTbx4l2alhFDfHcoiNCDGtYgXK/uOaKrvU9UmPGFTvXiHqaq+0SOYRCJKJ/YpDi1jJwiAAAiAQLURYHIJn6xd/U1GtXmHgkGgGghAN6kG6CgSBEDArwhAN6mgufTCmBpJAclcJokmRqORCSLiiBuWwjQUfqA4a4k+c9mYmJSzZnMFpbpzt7UGoSkFyEVCNxHYO4JFhRJFYYJoIkDDKgiAAAj4LgHx3QbXTbz4JsN3ycCzGk4AukkN7wCoPgiAQIUEoJtUiIiGkFiG6lDhY2OpyWQ/BsdozFomD4ah04OweBTJuhSgwncpD9vSoB3r0TNc4uAr8qQnLERE0jRy2PQjUtSIYlg2SY+yWFcqZmtLyKEcP0Y+zLLNglLoofIiBKlYcs1M205jb9gi27XsFSJbmA/SLqF4BY5gW3Za9FlIUkJlqCF6kGBW8kExJOgd9lWw2JZ4psk1sPWLFivYkb2w+sOkkxyNYTtWWbEBAiAAAiBQTQTMyiLGhLIrO3vbUU1+oVgQ8CEC0E18qDHgCgiAgE8SgG6i3iwsiJffYxkMBlkokXQTHjDCA0wIyVk2hg7BkW/FMpezoTxGY5Y4MoY+8Fv0Bf6orjzKK39lQYC5xhPZACF2EFMnmE7AM9AVbpPXi6Yqi7hXjCzhJmgZSqZzaSuUETuKUMG0HiWDrX+2ey1HMR8UWYO7RldUtQnRZ4v8IvtmcdHarKU4blOtClZ1VYzTROtqafpm5b3kgWq9rLJhAwRAAARAwPsE+ABbFlrCxuOI0SU8MtT7vqFEEPApAtBNfKo54AwIgIAPEoBuot4o7B6L7WPr7E7LmEUnKGHxJlxVoUN16MM8/VAOWwyGM6kxY5Znm0Udglrjz/xM+FD0jDFMTuGP9HzFPt5EnlSDGxKNqtbFYssiLLCDhNJlBwQHmS1JF2D5JHVALFYuzWLfUjvbXUIeWx+5xiHu0MrPqHGBwyYb37SySVPlRaoCz2Xl7rk0PurG4oiVHUuysiYPzxEG7Ch78BcEQAAEQKCaLCiicQAADsVJREFUCXDRxCgt4qWcecYyYHKTam4nFO8bBKCb+EY7wAsQAAHfJQDdhLaN2Ww2mUz2M5WwdhO/lWMyZdOBOmdo+InVUB1JUChlU5vQUTzKc7iN0MA3+QozxP7lj/R8xa26CYsHkaMjVB0QdRNJb5AlCu6PylF8n3gwrw8zIOQR60vXVbUJrfwu6ibUjBJGwk3ylarpJrbzm3Axx7aC2AYBEAABEPAGAXYd55OyizO7E0JYfKgYbALdxButgjL8hAB0Ez9pKLgJAiBQbQSgm8jo2R0Vl07EMc/s3osN1SGEnN4YM2ZMTOpZeW5XY9bymI2nzeZsyxAcqxAQMchDfI4X00nOCutQCJpRkCzkeT1E0UJtXThK6FAWnUAWYWTDag6I0odQguQ301vEo3LS6Dge0T7daxEQLBbEPIJrdNUF3YTZo7bs2TA/LKAkby0OSF6yvRZfhN1c57LyTtU3mkMUTdgR9ilWlrABAiAAAiDgMQLs9YYS8alnISTs2s3DSex1E5sMHvMOhkHADwhAN/GDRoKLIAAC1UoAuomMnwf0snssUTchhIjxvfT+jH5UR1mWZystSFUDZZGjOuguS/LMtDTL9CHsUZ7ll3NbHuktO2euWDHTIgdwUUJ85lfWBUVBcckqXkVKpJlke9KqlQOibmJxYYzgg6xPSEcJXvNxPkJtlWLsfRC809ZNFJKyaUGS4VWgKytWcOqcOdc7LDW0VEE6KEduGM5TiQ8SXVP3zRJLZJVXauiZK3LEjxPbZsA2CIAACICABwgoI2QNXCWxL4TlEdOhm4g0sF7DCUA3qeEdANUHARCokAB0EwsiLp3wLwfzfdZDdeiIHjHWl2fDiusEuMbh+qGSssPFkkocX9EhVfGtItvYDwIgAAIg4DoBNmu7wWAlkYixJKpXZyaR8JBSViy76Nskuu4RjgCBQCAA3SQQWhF1AAEQ8CQB6CZWdNmtlV6vt4k34elWubHhBgJV0SYsoSNucETFRFV8UzGHJBAAARAAgaoQ4NdiFjzCJQ/2bkMcrcN3seLEoFHuANNN+CBcno4VEKiBBKCb1MBGR5VBAARcIgDdxBaXeOMl7lO96xIzYL1SBKqiTUA3qRRyHAQCIAAC/kmAX4h5fKg4lQl758Ev4nzMjhhswsJVeEwKvkPsnx0BXrufAHQT9zOFRRAAgcAiAN1EpT1ZsIler+f7+C0av9niu7ACAiAAAiAAAiDgBQJMN2EF8dgTQoiojPBNfhFnR3E9hX9wxwsOowgQ8BcC0E38paXgJwiAQHURgG6iTl68OePfL9Tr9dBN1HkhFQRAAARAAAQ8TIDHm7BybDbFwvlFnL/2YClsYhRcykVWWAcBQgh0E3QDEAABEHBMALqJCh/xLRbbbZQW3GmpwEISCIAACIAACHiFAIsG5QNwWAgJ3zRLC3PERjeBXOKV9kEhfkwAuokfNx5cBwEQ8AoB6Ca2mHkoL78Vs82BbRAAARAAARAAAa8TYG81+Eyu4ia7djN9xEZewTsPrzcUCvQ/AtBN/K/N4DEIgIB3CUA3seVtMtHPDEM0seWCbRAAARAAARDwMAGTstiXYzKZ+KAbJoWwTS6j8LnJMNurPT2kgIBjAtBNHPPBXhAAARCAbuJaHzgrLa4dg9wgAAIgAAIgAAIOCfARsmyIDZ9QjH0BhyWyFxtcFrHRTQgh4lAdh6VhJwiAgBUB6CZWOLABAiAAAnYEoJvYIXGYAN3EIR7sBAEQAAEQAAGXCfBAEhZUwiJHWCAJHzzLvoPDc/LoEsSHuowbB4CAHQHoJnZIkAACIAACVgSgm1jhqHADukmFiJABBEAABEAABBwQMJlMXBlhI25sZnglhLAAExY/YjQaxTlKzGYzRBMHeLELBCpBALpJJaDhEBAAgRpFALqJa80N3cQ1XsgNAiAAAiBQkwiwYTVaMSD20SJGo5EQwnQQ8Sj7lJpEEXUFAW8TgG7ibeIoDwRAwN8IQDdxrcWgm7jGC7lBAARAAARqAAE+sQibpoSpIfYTjohxJVxDIYSwdH4UV1LEMJMaQBFVBIFqIwDdpNrQo2AQ8AcCbBStP3jqQR+hm7gGF7qJa7yQGwRAAARAINAJOFZD+IgbQgj7Wg5b4fO/ih/KYSEnfI7YQCeH+oGArxCAbuIrLQE/QMCXCPDp2NkUY77kWjX4At3ENejQTVzjhdwgAAIgAAKBToDJHHyUDZ+7hH34hm3ax5IwDYV/HIdrJVxPQbBJoHcc1M+HCEA38aHGgCsgUN0ExC/Z8Ysyv8pXt3fVVj50E9fQu66bXMyIjY6Ojs3ISJpuvURHJxUohV/MiI3NuKhsEUIKk6KTCoVtaVXIVWhnTT6eFieWE21lV9WsbTHYBgEQAAEQAAFXCfAgXq6AsHsscTwOH5KjuovdqBmNRtycuQof+UGgigSgm1QRIA4HgUAiwK/j7IrM3n8EUgUrVxfoJq5xc143uZgRy/QLro4UJAkahqCBSB5czIgVhBJ1fUM4plC0RYhlj7UdJV2xp/x1rdLIDQIgAAIgAALqBJjGIU5QwoUSHjAiTvLK18XP4ojRKOrFIBUEQMCTBKCbeJIubIOArxNgF3GbcbX8Iq7X6w0Gg6/XwfP+QTdxjbFLuklsxkUqYxSQgiQptkRRMUSdgxd/8WLhRSXipDDJOkxEOoBHkURHJxXKuoliUfkrZaT6i5ygpCt6ifKXl4oVEAABEAABEKgsAXaPJc5XwiyJM57wvUwc4W+x2H0Yn1C2si7gOBAAATcQgG7iBogwAQL+SYBdytlbDX5Z51Vh70IQB0oIgW7Ce4VTK87rJkRSSzIyYpPo/8qInIKk6NjYWGGITmGS1bCa6dOn0/zRVonKkB1FBZHG8UixK0qK8he6iVOtiEwgAAIgAAKVImA2m8WbJzF21+Y9lfh6ikegsDLZzCainUr5goNAAATcRgC6idtQwhAI+DYBPtUruwqzlxk86lO8lLN6QDfh7QndhKNwasUV3YQaZPEmiumCJEUQsYonsageNGNhUjSNKGHHWI3HEfI5EW8ihJ3w6VJ4vAmdBoVGrUj+sOK4gqOULXmvOKwk0kP4gVTlsZuFRaks/oIACIAACAQUAS5/cMlD1E3EoTqEEJt7L7aXB/0GFBdUBgT8nwB0E/9vQ9QABCogIA7G4d/HYbqJzWVdvFjbZKigjIDeDd3EteZ1XjcpsAskEaJMZElCnhlW0EPYAJsMZfYSvoeLGvKcKUkshzKbCc8nCTVsnE6FuomizshTyTIFRJrGVhZDCjOUuWqZWkJRSaqOIOvQKW+V4UWuoURuEAABEAABfyPAR9mwmypRN+G7WJ1shuqIN2H+Vmn4CwKBTwC6SeC3MWpY4wmw9xkGg4GrJIQQm9GyNu88+Ehb8ZAaCxK6iWtN77xuItmlASZ8jA4rySJx8JIlrYIJIkyRUPIof+WcwqYcb6LEj1j2yEqKvENJV/Ipf6m8wsUPaYOrH3QP31BctCRaFBRpn5UdJTf+ggAIgAAIBCwBUR8RdRObGBMWCQy5JGD7ASoWWASgmwRWe6I2NZ0AuwTbfJ+OXbLZdVn16syu7zZTwLJQUz6QpyaThW7iWuu7ppsUyF8LptqJss6nd6WDXNi0J0rUCOGjcpjeYTs9rBTrwTQNllP6GjHVPxR9RJnfRNlW/ip6ifLXXjfh420sEgld494qcSUquomdyuIaUuQGARAAARDwLwIslsQgLXq9njvP0nF3xYFgBQT8hQB0E39pKfgJAhUSUB2PQwjh12gWVKLX622u1/bBJiwgRZywrMLSAzgDdBPXGtcV3YSKFklJdE5YcZYTRcoQyuVqBtdNpPEwtrOHsGyCmEITkpIscSMWk9ajaazSLcNxrKQSqw1JCREVEouYIqbKw3b4oZZysAYCIAACIBDQBNhrK3aPxSvKJ0DhKVgBARDwCwLQTfyimeAkCFRIQLwQ8/hQFl3CNw0GA9dW+AAcm2ATns6DSSssOuAzQDdxrYmd102kESwFomLCSrLXTbhsIuyiRyshHrKHPBsLS5GlDJ7Kg1YkzYUqHzwaxVJFMbdFb5FcVeZ3le2ymUxkSUSSYZRAF8EvyUvIJha+WAMBEACBmkOAv7DiVRZv13giVkAABHyfAHQT328jeAgCzhBgF2I+1oa95GBxJUwZ4TEmXEZhZtk13SgtbJ1LJ6qDepxxJsDyQDdxrUGd100KkugoHEU3oQoDH/PCV6JjMy4IooWsm0hqhDz6Rpm7lc7HKoyHsQgWXC5RJBGqcVhyWh/Gv6vj4jgd6dPIFt2EfymZe+caROQGARAAARDwfwL2Kgm70+K3a/5fRdQABGoKAegmNaWlUc9AJ2BzabYRR2xqz67afDAO22T/Go1GyCU2uKCb2ACpYNN53YQZUnQTi1khqIQmMrnjYkbs9OnTo6PpuB5R9pC/u0M//GvRQqxFD6qTMCEmqVD62o1a/AezT4tQ22txruI1m3E6FR+AHCAAAiAAAgFJwObmjBBiM0t/QNYalQKBgCQA3SQgmxWVqpkEmPDBVQ+bTfEDOmyXqJvYTCVbMwFq1Rq6iRYZ9XRXdRN1K36cCt3EjxsProMACICAuwjwV1g84tddlmEHBEDA+wSgm3ifOUoEAQ8R4PO/Mvtskw26YevsJQcbwsPSzWYzH5XjIa8CwCx0E9caEboJ/bKyMheKa+yQGwRAAARAIFAI2NyWBUq1UA8QqKEEoJvU0IZHtf2TgElZ7N1ne3ggCSGEvefgsog4rTvefNgDdJAC3cQBHJVdNV43UWGCJBAAARAAARAAARAAAf8lAN3Ef9sOntcoAjzYkykjer2ejccxm83sfYZer+d5mFZio5uwUTl8FE+NolfFykI3cQ0gdBPXeCE3CIAACIAACIAACICAbxOAbuLb7QPvQIAS4NOKmUwms9nMIkfYXOxcNGG6CZdOeHQJhJKq9yHoJq4xhG7iGi/kBgEQAAEQAAEQAAEQ8G0C0E18u33gXU0kYDKZjEajOOE6E0f4iBtCCJ/zlcWbiOKIKJ2I6TURpZvq/P8BAlp2WUau3rgAAAAASUVORK5CYII=;" vertex="1" parent="1">
          <mxGeometry x="800" y="389.99999999999994" width="1159" height="211.44" as="geometry" />
        </mxCell>
        <mxCell id="hBP_vp7AdoXU47L-5ApC-19" value="异步线程" style="text;html=1;align=center;verticalAlign=middle;resizable=0;points=[];autosize=1;strokeColor=none;fillColor=none;" vertex="1" parent="1">
          <mxGeometry x="500" y="190" width="70" height="30" as="geometry" />
        </mxCell>
        <mxCell id="hBP_vp7AdoXU47L-5ApC-20" value="业务线程" style="text;html=1;align=center;verticalAlign=middle;resizable=0;points=[];autosize=1;strokeColor=none;fillColor=none;" vertex="1" parent="1">
          <mxGeometry x="375" y="68" width="70" height="30" as="geometry" />
        </mxCell>
        <mxCell id="hBP_vp7AdoXU47L-5ApC-21" value="事件线程" style="text;html=1;align=center;verticalAlign=middle;resizable=0;points=[];autosize=1;strokeColor=none;fillColor=none;" vertex="1" parent="1">
          <mxGeometry x="625" y="148" width="70" height="30" as="geometry" />
        </mxCell>
        <mxCell id="hBP_vp7AdoXU47L-5ApC-24" value="影响导致报错" style="text;html=1;align=center;verticalAlign=middle;resizable=0;points=[];autosize=1;strokeColor=none;fillColor=none;" vertex="1" parent="1">
          <mxGeometry x="460" y="420" width="100" height="30" as="geometry" />
        </mxCell>
      </root>
    </mxGraphModel>
  </diagram>
</mxfile>
